g prop_desert_fan_01
v 0.3980613 -0.2115698 0.9096684
v 0.3980613 -0.1783928 0.9428455
v 0.420544 -0.1783928 0.9096684
v 0.420544 0.2420546 0.9096684
v 0.3980613 0.2420546 0.9428455
v 0.3980613 0.2752316 0.9096684
v -0.3980613 -0.2115698 0.9096684
v -0.420544 -0.1783928 0.9096684
v -0.3980613 -0.1783928 0.9428455
v -0.420544 0.2420546 0.9096684
v -0.3980613 0.2752316 0.9096684
v -0.3980613 0.2420546 0.9428455
v 0.420544 -0.1783928 0.1464832
v 0.3868584 -0.1920733 0.1034991
v 0.3980613 -0.2115698 0.1464832
v 0.3980613 0.2752316 0.1464832
v 0.3868584 0.2557351 0.1034991
v 0.420544 0.2420546 0.1464832
v -0.420544 -0.1783928 0.1464832
v -0.3980613 -0.2115698 0.1464832
v -0.3868583 -0.1920733 0.1034991
v -0.3980613 0.2752316 0.1464832
v -0.420544 0.2420546 0.1464832
v -0.3868583 0.2557351 0.1034991
v 0.1909604 -0.2557401 0.7275152
v 0.1909604 -0.2557401 0.3165535
v -0.2374586 -0.2557401 0.3165535
v -0.2374586 -0.2557401 0.7275152
v -0.2651308 -0.2519867 0.7741106
v 0.2118101 -0.2752316 0.7473683
v -0.2583083 -0.2752316 0.7473683
v 0.2186327 -0.2519867 0.7741106
v 0.2348975 -0.2026232 0.7911162
v -0.2813956 -0.2026232 0.7911162
v -0.2583083 -0.2752316 0.2967006
v 0.2118253 -0.2618205 0.264083
v -0.2583234 -0.2618205 0.264083
v 0.2118101 -0.2752316 0.2967006
v 0.1909604 -0.2752316 0.3165535
v -0.2374586 -0.2752316 0.3165535
v 0.1909604 -0.2752316 0.7275152
v -0.2583083 -0.2752316 0.7473683
v 0.2118101 -0.2752316 0.7473683
v -0.2374586 -0.2752316 0.7275152
v 0.2186327 -0.2519867 0.7741106
v 0.2348975 -0.2026232 0.7911162
v 0.2494778 -0.2026232 0.7696006
v 0.2322943 -0.2519867 0.7539507
v 0.2118101 -0.2752316 0.7473683
v 0.2494778 -0.2026232 0.2746686
v 0.2118101 -0.2752316 0.2967006
v 0.2322943 -0.2519867 0.2902023
v 0.2276323 -0.2029096 0.246793
v 0.2118253 -0.2618205 0.264083
v -0.2583234 -0.2618205 0.264083
v -0.2741303 -0.2029096 0.246793
v -0.2959758 -0.2026232 0.2746686
v -0.2787924 -0.2519867 0.2902023
v -0.2583083 -0.2752316 0.2967006
v -0.2959758 -0.2026232 0.7696006
v -0.2583083 -0.2752316 0.7473683
v -0.2787924 -0.2519867 0.7539507
v -0.2813956 -0.2026232 0.7911162
v -0.2651308 -0.2519867 0.7741106
v 0.2118253 -0.2618205 0.264083
v 0.2276323 -0.2029096 0.246793
v -0.2741303 -0.2029096 0.246793
v -0.2583234 -0.2618205 0.264083
v 0.1909604 -0.2752316 0.3165535
v 0.1909604 -0.2557401 0.3165535
v 0.1909604 -0.2557401 0.7275152
v 0.1909604 -0.2752316 0.7275152
v 0.1909604 -0.2752316 0.7275152
v 0.1909604 -0.2557401 0.7275152
v -0.2374586 -0.2557401 0.7275152
v -0.2374586 -0.2752316 0.7275152
v -0.2374586 -0.2752316 0.7275152
v -0.2374586 -0.2557401 0.7275152
v -0.2374586 -0.2557401 0.3165535
v -0.2374586 -0.2752316 0.3165535
v -0.2374586 -0.2752316 0.3165535
v -0.2374586 -0.2557401 0.3165535
v 0.1909604 -0.2557401 0.3165535
v 0.1909604 -0.2752316 0.3165535
v -0.420544 -0.1783928 0.1464832
v -0.420544 0.2420546 0.1464832
v -0.420544 0.2420546 0.9096684
v -0.420544 -0.1783928 0.9096684
v -0.3980613 -0.1783928 0.9428455
v -0.3980613 0.2420546 0.9428455
v 0.3980613 0.2420546 0.9428455
v 0.3980613 -0.1783928 0.9428455
v -0.3980613 -0.1783928 0.9428455
v 0.3980613 -0.1783928 0.9428455
v 0.3980613 -0.2115698 0.9096684
v -0.3980613 -0.2115698 0.9096684
v 0.3980613 0.2420546 0.9428455
v -0.3980613 0.2420546 0.9428455
v -0.3980613 0.2752316 0.9096684
v 0.3980613 0.2752316 0.9096684
v 0.3980613 -0.1783928 0.9428455
v 0.3980613 0.2420546 0.9428455
v 0.420544 0.2420546 0.9096684
v 0.420544 -0.1783928 0.9096684
v -0.3980613 -0.1783928 0.9428455
v -0.420544 -0.1783928 0.9096684
v -0.420544 0.2420546 0.9096684
v -0.3980613 0.2420546 0.9428455
v 0.4205441 0.2420546 0.9096684
v 0.4205441 0.2420546 0.1464832
v 0.4205441 -0.1783928 0.1464832
v 0.4205441 -0.1783928 0.9096684
v 0.3980613 -0.2115698 0.9096684
v 0.3980613 -0.2115698 0.1464832
v -0.3980613 -0.2115698 0.1464832
v -0.3980613 -0.2115698 0.9096684
v 0.3980613 -0.2115698 0.1464832
v 0.3980613 -0.2115698 0.9096684
v 0.420544 -0.1783928 0.9096684
v 0.420544 -0.1783928 0.1464832
v -0.3980613 -0.2115698 0.1464832
v -0.420544 -0.1783928 0.1464832
v -0.420544 -0.1783928 0.9096684
v -0.3980613 -0.2115698 0.9096684
v -0.3980613 -0.2115698 0.1464832
v 0.3980613 -0.2115698 0.1464832
v 0.3868584 -0.1920733 0.1034991
v -0.3868583 -0.1920733 0.1034991
v 0.420544 -0.1783928 0.1464832
v 0.420544 0.2420546 0.1464832
v 0.3868584 0.2557351 0.1034991
v 0.3868584 -0.1920733 0.1034991
v -0.420544 -0.1783928 0.1464832
v -0.3868583 -0.1920733 0.1034991
v -0.3868583 0.2557351 0.1034991
v -0.420544 0.2420546 0.1464832
v -0.3980613 0.2752316 0.1464832
v -0.3868583 0.2557351 0.1034991
v 0.3868584 0.2557351 0.1034991
v 0.3980613 0.2752316 0.1464832
v -0.3868583 0.2557351 0.1034991
v -0.3868583 -0.1920733 0.1034991
v 0.3868584 -0.1920733 0.1034991
v 0.3868584 0.2557351 0.1034991
v 0.3565308 -0.2222587 0.5802379
v 0.3565308 -0.2222587 0.2624807
v 0.3006561 -0.2222587 0.2624807
v 0.3006561 -0.2222587 0.5802379
v 0.3565308 -0.2222587 0.5802379
v 0.3570713 -0.2052396 0.5833122
v 0.3570713 -0.2052396 0.2594063
v 0.3565308 -0.2222587 0.2624807
v 0.3006561 -0.2222587 0.5802379
v 0.3001156 -0.2052396 0.5833122
v 0.3570713 -0.2052396 0.5833122
v 0.3565308 -0.2222587 0.5802379
v 0.3006561 -0.2222587 0.2624807
v 0.3001156 -0.2052396 0.2594063
v 0.3001156 -0.2052396 0.5833122
v 0.3006561 -0.2222587 0.5802379
v 0.3565308 -0.2222587 0.2624807
v 0.3570713 -0.2052396 0.2594063
v 0.3001156 -0.2052396 0.2594063
v 0.3006561 -0.2222587 0.2624807
v -0.3566502 -0.153855 -0.0006401585
v -0.3566502 -0.153855 0.1029076
v -0.1768609 -0.153855 0.1029076
v -0.1768609 -0.153855 -0.0006401585
v -0.1768609 -0.05970026 -0.0006401514
v -0.1768609 -0.153855 -0.0006401585
v -0.1768609 -0.153855 0.1029076
v -0.1768609 -0.0597003 0.1029076
v -0.3566502 -0.05970026 -0.0006401515
v -0.3566502 -0.0597003 0.1029076
v -0.3566502 -0.153855 0.1029076
v -0.3566502 -0.153855 -0.0006401585
v -0.3566502 -0.05970026 -0.0006401515
v -0.1768609 -0.05970026 -0.0006401514
v -0.1768609 -0.0597003 0.1029076
v -0.3566502 -0.0597003 0.1029076
v 0.176861 -0.153855 -0.0006401585
v 0.176861 -0.153855 0.1029076
v 0.3566503 -0.153855 0.1029076
v 0.3566503 -0.153855 -0.0006401585
v 0.3566503 -0.05970026 -0.0006401514
v 0.3566503 -0.153855 -0.0006401585
v 0.3566503 -0.153855 0.1029076
v 0.3566503 -0.0597003 0.1029076
v 0.176861 -0.05970026 -0.0006401515
v 0.176861 -0.0597003 0.1029076
v 0.176861 -0.153855 0.1029076
v 0.176861 -0.153855 -0.0006401585
v 0.176861 -0.05970026 -0.0006401515
v 0.3566503 -0.05970026 -0.0006401514
v 0.3566503 -0.0597003 0.1029076
v 0.176861 -0.0597003 0.1029076
v 0.176861 0.1611058 -0.0006401585
v 0.176861 0.1611057 0.1029076
v 0.3566503 0.1611057 0.1029076
v 0.3566503 0.1611058 -0.0006401585
v 0.3566503 0.2552605 -0.0006401514
v 0.3566503 0.1611058 -0.0006401585
v 0.3566503 0.1611057 0.1029076
v 0.3566503 0.2552604 0.1029076
v 0.176861 0.2552605 -0.0006401515
v 0.176861 0.2552604 0.1029076
v 0.176861 0.1611057 0.1029076
v 0.176861 0.1611058 -0.0006401585
v 0.176861 0.2552605 -0.0006401515
v 0.3566503 0.2552605 -0.0006401514
v 0.3566503 0.2552604 0.1029076
v 0.176861 0.2552604 0.1029076
v -0.3566502 0.1611058 -0.0006401585
v -0.3566502 0.1611057 0.1029076
v -0.1768609 0.1611057 0.1029076
v -0.1768609 0.1611058 -0.0006401585
v -0.1768609 0.2552605 -0.0006401514
v -0.1768609 0.1611058 -0.0006401585
v -0.1768609 0.1611057 0.1029076
v -0.1768609 0.2552604 0.1029076
v -0.3566502 0.2552605 -0.0006401515
v -0.3566502 0.2552604 0.1029076
v -0.3566502 0.1611057 0.1029076
v -0.3566502 0.1611058 -0.0006401585
v -0.3566502 0.2552605 -0.0006401515
v -0.1768609 0.2552605 -0.0006401514
v -0.1768609 0.2552604 0.1029076
v -0.3566502 0.2552604 0.1029076
v 0.420544 0.2420546 0.1464832
v 0.420544 0.2420546 0.9096684
v 0.3980613 0.2752316 0.9096684
v 0.3980613 0.2752316 0.1464832
v -0.420544 0.2420546 0.1464832
v -0.3980613 0.2752316 0.1464832
v -0.3980613 0.2752316 0.9096684
v -0.420544 0.2420546 0.9096684
v -0.3980613 0.2752316 0.1464832
v 0.3980613 0.2752316 0.1464832
v 0.3980613 0.2752316 0.9096684
v -0.3980613 0.2752316 0.9096684
vt 0.5486007 0.5619701
vt 0.5502089 0.5942554
vt 0.567699 0.566789
vt 0.567699 0.8765669
vt 0.5502089 0.8786355
vt 0.5547934 0.9113868
vt 0.5486007 0.5619701
vt 0.567699 0.566789
vt 0.5502089 0.5942554
vt 0.567699 0.8765669
vt 0.5547934 0.9113868
vt 0.5502089 0.8786355
vt 0.567699 0.05016683
vt 0.5488696 0.01003824
vt 0.5486007 0.04723443
vt 0.7724934 0.04071063
vt 0.7597356 0.01003824
vt 0.7534609 0.05016683
vt 0.567699 0.05016683
vt 0.5486007 0.04723443
vt 0.5488696 0.01003824
vt 0.7724934 0.04071063
vt 0.7534609 0.05016683
vt 0.7597356 0.01003824
vt 0.8868018 0.8863403
vt 0.8868018 0.6631106
vt 0.6764492 0.6631106
vt 0.6764492 0.8863403
vt 0.9452861 0.946659
vt 0.9212447 0.6237824
vt 0.9212447 0.9320961
vt 0.9452861 0.6076621
vt 0.9807115 0.6076621
vt 0.9807115 0.946659
vt 0.6464815 0.9320961
vt 0.6241051 0.6245295
vt 0.6241243 0.9324741
vt 0.6464815 0.6237824
vt 0.6549451 0.6346347
vt 0.6549451 0.9212504
vt 0.9133564 0.6346347
vt 0.9212447 0.9320961
vt 0.9212447 0.6237824
vt 0.9133564 0.9212504
vt 0.9387937 0.6080735
vt 0.9387937 0.584196
vt 0.9215475 0.584196
vt 0.9215475 0.6080735
vt 0.9212447 0.6237824
vt 0.635956 0.584196
vt 0.6464815 0.6237824
vt 0.635956 0.6080735
vt 0.6154712 0.584196
vt 0.6154712 0.6080735
vt 0.6149657 0.9473816
vt 0.6149657 0.971261
vt 0.6357188 0.971261
vt 0.6357188 0.9473816
vt 0.6464815 0.9320961
vt 0.9212446 0.971261
vt 0.9212447 0.9320961
vt 0.9212446 0.9473816
vt 0.9383301 0.971261
vt 0.9383301 0.9473816
vt 0.6241051 0.6245295
vt 0.5851771 0.6245295
vt 0.5851771 0.9324741
vt 0.6241243 0.9324741
vt 0.6549451 0.6346347
vt 0.6641929 0.6407223
vt 0.9043213 0.6407223
vt 0.9133564 0.6346347
vt 0.9133564 0.6346347
vt 0.9043213 0.6407223
vt 0.9043213 0.9151577
vt 0.9133564 0.9212504
vt 0.9133564 0.9212504
vt 0.9043213 0.9151577
vt 0.6641929 0.9151577
vt 0.6549451 0.9212504
vt 0.6549451 0.9212504
vt 0.6641929 0.9151577
vt 0.6641929 0.6407223
vt 0.6549451 0.6346347
vt 0.567699 0.05016683
vt 0.7534609 0.05016683
vt 0.7534609 0.566789
vt 0.567699 0.566789
vt 0.01288232 0.5942554
vt 0.01288232 0.8786355
vt 0.5502089 0.8786355
vt 0.5502089 0.5942554
vt 0.01288232 0.5942554
vt 0.5502089 0.5942554
vt 0.5486007 0.5619701
vt 0.01243124 0.5619701
vt 0.5502089 0.8786355
vt 0.01288232 0.8786355
vt 0.01464802 0.9113868
vt 0.5547934 0.9113868
vt 0.5502089 0.5942554
vt 0.5502089 0.8786355
vt 0.567699 0.8765669
vt 0.567699 0.566789
vt 0.5502089 0.5942554
vt 0.567699 0.566789
vt 0.567699 0.8765669
vt 0.5502089 0.8786355
vt 0.7534609 0.566789
vt 0.7534609 0.05016683
vt 0.567699 0.05016683
vt 0.567699 0.566789
vt 0.5486007 0.5619701
vt 0.5486007 0.04723443
vt 0.01243124 0.04723443
vt 0.01243124 0.5619701
vt 0.5486007 0.04723443
vt 0.5486007 0.5619701
vt 0.567699 0.566789
vt 0.567699 0.05016683
vt 0.5486007 0.04723443
vt 0.567699 0.05016683
vt 0.567699 0.566789
vt 0.5486007 0.5619701
vt 0.01243121 0.04723443
vt 0.5486007 0.04723443
vt 0.5488696 0.01003824
vt 0.02213834 0.01003824
vt 0.567699 0.05016683
vt 0.7534609 0.05016683
vt 0.7597356 0.01003824
vt 0.5488696 0.01003824
vt 0.567699 0.05016683
vt 0.5488696 0.01003824
vt 0.7597356 0.01003824
vt 0.7534609 0.05016683
vt 0.01243121 0.04723443
vt 0.02213834 0.01003824
vt 0.5488696 0.01003824
vt 0.5486007 0.04723443
vt 0.7597356 0.01003824
vt 0.02213834 0.01003824
vt 0.5488696 0.01003824
vt 0.5488696 0.01003824
vt 0.9592695 0.01834996
vt 0.8013304 0.01834996
vt 0.8013304 0.05933221
vt 0.9592692 0.05933221
vt 0.9592695 0.01834996
vt 0.9592695 0.01015921
vt 0.8013304 0.01015921
vt 0.8013304 0.01834996
vt 0.9592692 0.05933221
vt 0.9670262 0.05933221
vt 0.9670263 0.01834996
vt 0.9592695 0.01834996
vt 0.8013304 0.05933221
vt 0.8013304 0.0675232
vt 0.9592692 0.0675232
vt 0.9592692 0.05933221
vt 0.8013304 0.01834996
vt 0.7935733 0.01834996
vt 0.7935733 0.05933221
vt 0.8013304 0.05933221
vt 0.7947564 0.08512018
vt 0.7947564 0.1333711
vt 0.9189475 0.133408
vt 0.9189475 0.08505438
vt 0.9672932 0.08498845
vt 0.9189475 0.08505438
vt 0.9189475 0.133408
vt 0.9672932 0.1334449
vt 0.9672932 0.08498845
vt 0.9672932 0.1334449
vt 0.9189475 0.133408
vt 0.9189475 0.08505438
vt 0.7947564 0.08512018
vt 0.9189475 0.08505438
vt 0.9189475 0.133408
vt 0.7947564 0.1333711
vt 0.7947564 0.08512018
vt 0.7947564 0.1333711
vt 0.9189475 0.133408
vt 0.9189475 0.08505438
vt 0.9672932 0.08498845
vt 0.9189475 0.08505438
vt 0.9189475 0.133408
vt 0.9672932 0.1334449
vt 0.9672932 0.08498845
vt 0.9672932 0.1334449
vt 0.9189475 0.133408
vt 0.9189475 0.08505438
vt 0.7947564 0.08512018
vt 0.9189475 0.08505438
vt 0.9189475 0.133408
vt 0.7947564 0.1333711
vt 0.7947564 0.08512018
vt 0.7947564 0.1333711
vt 0.9189475 0.133408
vt 0.9189475 0.08505438
vt 0.9672932 0.08498845
vt 0.9189475 0.08505438
vt 0.9189475 0.133408
vt 0.9672932 0.1334449
vt 0.9672932 0.08498845
vt 0.9672932 0.1334449
vt 0.9189475 0.133408
vt 0.9189475 0.08505438
vt 0.7947564 0.08512018
vt 0.9189475 0.08505438
vt 0.9189475 0.133408
vt 0.7947564 0.1333711
vt 0.7947564 0.08512018
vt 0.7947564 0.1333711
vt 0.9189475 0.133408
vt 0.9189475 0.08505438
vt 0.9672932 0.08498845
vt 0.9189475 0.08505438
vt 0.9189475 0.133408
vt 0.9672932 0.1334449
vt 0.9672932 0.08498845
vt 0.9672932 0.1334449
vt 0.9189475 0.133408
vt 0.9189475 0.08505438
vt 0.7947564 0.08512018
vt 0.9189475 0.08505438
vt 0.9189475 0.133408
vt 0.7947564 0.1333711
vt 0.7534609 0.05016683
vt 0.7534609 0.566789
vt 0.7724934 0.5569598
vt 0.7724934 0.04071063
vt 0.7534609 0.05016683
vt 0.7724934 0.04071063
vt 0.7724934 0.5569598
vt 0.7534609 0.566789
vt 0.01243124 0.04723443
vt 0.5486007 0.04723443
vt 0.5486007 0.5619701
vt 0.01243124 0.5619701
vn 0.721981 -0.4892568 0.4892557
vn 0.7219811 -0.4892568 0.4892557
vn 0.7219811 -0.4892568 0.4892557
vn 0.7219807 0.4892571 0.489256
vn 0.7219807 0.4892571 0.489256
vn 0.7219807 0.4892571 0.489256
vn -0.7219805 -0.4892572 0.4892561
vn -0.7219805 -0.4892572 0.4892561
vn -0.7219805 -0.4892572 0.4892561
vn -0.72198 0.4892575 0.4892564
vn -0.7219801 0.4892575 0.4892564
vn -0.7219801 0.4892575 0.4892564
vn 0.7491437 -0.5076638 -0.4255129
vn 0.7491437 -0.5076637 -0.4255129
vn 0.7491437 -0.5076638 -0.4255129
vn 0.7491431 0.5076647 -0.4255129
vn 0.7491431 0.5076647 -0.4255129
vn 0.7491431 0.5076647 -0.425513
vn -0.7491432 -0.5076643 -0.4255131
vn -0.7491432 -0.5076643 -0.4255131
vn -0.7491432 -0.5076643 -0.4255131
vn -0.7491428 0.5076645 -0.4255134
vn -0.7491428 0.5076645 -0.4255135
vn -0.7491428 0.5076645 -0.4255135
vn 0 -1 0
vn 0 -1 0
vn 0 -1 0
vn 0 -1 0
vn -0.3539961 -0.5702145 0.7413111
vn 0.4728129 -0.7917608 0.3867337
vn -0.4728139 -0.7917601 0.3867336
vn 0.3539955 -0.5702146 0.7413114
vn 0.4488202 -0.4196706 0.7889468
vn -0.4488209 -0.4196707 0.7889464
vn 4.80714E-07 -0.9810336 -0.1938382
vn 0 -0.9248737 -0.3802744
vn 0 -0.9248737 -0.3802744
vn -4.80714E-07 -0.9810336 -0.1938382
vn -9.053023E-07 -1 9.707218E-07
vn 9.053033E-07 -1 9.707217E-07
vn -9.053034E-07 -1 -9.707151E-07
vn 9.433236E-07 -1 -9.307872E-07
vn -9.433232E-07 -1 -9.307867E-07
vn 9.053044E-07 -1 -9.707148E-07
vn 0.3539955 -0.5702146 0.7413114
vn 0.4488202 -0.4196706 0.7889468
vn 0.8689409 -0.3964166 0.2963032
vn 0.8182614 -0.5263454 0.2311033
vn 0.4728129 -0.7917608 0.3867337
vn 0.8759084 -0.3771314 -0.300926
vn 0.731062 -0.6739704 -0.1063594
vn 0.835699 -0.5061749 -0.2130596
vn 0.7589821 -0.3894437 -0.5218043
vn 0.7404308 -0.5164013 -0.4302231
vn -0.7404318 -0.5164001 -0.4302228
vn -0.7589827 -0.3894427 -0.5218043
vn -0.8759087 -0.3771308 -0.3009259
vn -0.8356994 -0.506174 -0.2130594
vn -0.7310632 -0.6739691 -0.1063589
vn -0.8689413 -0.3964165 0.2963024
vn -0.4728139 -0.7917601 0.3867336
vn -0.818262 -0.5263448 0.2311028
vn -0.4488209 -0.4196707 0.7889464
vn -0.3539961 -0.5702145 0.7413111
vn 0 -0.2816161 -0.9595271
vn 0 -0.2816161 -0.9595271
vn 0 -0.2816161 -0.9595271
vn 0 -0.2816161 -0.9595271
vn -1 0 0
vn -1 0 0
vn -1 0 0
vn -1 0 0
vn 0 -3.914231E-06 -1
vn 0 -3.914231E-06 -1
vn 0 -3.914231E-06 -1
vn 0 -3.914231E-06 -1
vn 1 0 0
vn 1 0 0
vn 1 0 0
vn 1 0 0
vn 0 9.785579E-07 1
vn 0 9.785579E-07 1
vn 0 9.785579E-07 1
vn 0 9.785579E-07 1
vn -1 0 0
vn -1 0 0
vn -1 0 0
vn -1 0 0
vn 0 0 1
vn 0 0 1
vn 0 0 1
vn 0 0 1
vn 0 -0.7071075 0.7071059
vn 0 -0.7071075 0.7071059
vn 0 -0.7071075 0.7071059
vn 0 -0.7071075 0.7071059
vn 0 0.7071075 0.7071059
vn 0 0.7071075 0.7071059
vn 0 0.7071075 0.7071059
vn 0 0.7071075 0.7071059
vn 0.827827 0 0.5609835
vn 0.8278269 0 0.5609835
vn 0.8278269 0 0.5609835
vn 0.8278269 0 0.5609835
vn -0.8278266 0 0.5609842
vn -0.8278266 0 0.5609842
vn -0.8278266 0 0.5609842
vn -0.8278266 0 0.5609842
vn 1 0 0
vn 1 0 0
vn 1 0 0
vn 1 0 0
vn 0 -1 0
vn 0 -1 0
vn 0 -1 0
vn 0 -1 0
vn 0.8278267 -0.560984 0
vn 0.8278267 -0.560984 0
vn 0.8278267 -0.560984 0
vn 0.8278267 -0.560984 0
vn -0.8278262 -0.5609847 0
vn -0.8278262 -0.5609847 0
vn -0.8278262 -0.5609847 0
vn -0.8278262 -0.5609847 0
vn 0 -0.9106994 -0.4130697
vn 0 -0.9106994 -0.4130697
vn 0 -0.9106994 -0.4130697
vn 0 -0.9106994 -0.4130697
vn 0.7870966 0 -0.6168299
vn 0.7870966 0 -0.6168298
vn 0.7870966 0 -0.6168298
vn 0.7870966 0 -0.6168298
vn -0.7870963 0 -0.6168302
vn -0.7870963 0 -0.6168302
vn -0.7870963 0 -0.6168302
vn -0.7870963 0 -0.6168303
vn 0 0.9106991 -0.4130704
vn 0 0.9106991 -0.4130703
vn 0 0.9106991 -0.4130704
vn 0 0.9106991 -0.4130703
vn 0 0 -1
vn 0 0 -1
vn 0 0 -1
vn 0 0 -1
vn 0 -1 1.200507E-07
vn 0 -1 1.200507E-07
vn 0 -1 1.200507E-07
vn 0 -1 1.200507E-07
vn 0.999496 -0.03174721 0
vn 0.999496 -0.03174721 0
vn 0.999496 -0.03174721 0
vn 0.999496 -0.03174721 0
vn 0 -0.1777574 0.9840744
vn 0 -0.1777574 0.9840744
vn 0 -0.1777574 0.9840744
vn 0 -0.1777574 0.9840744
vn -0.999496 -0.03174609 0
vn -0.999496 -0.03174609 0
vn -0.999496 -0.03174609 0
vn -0.999496 -0.03174609 0
vn 0 -0.1777659 -0.9840729
vn 0 -0.1777659 -0.9840729
vn 0 -0.177766 -0.9840729
vn 0 -0.1777659 -0.9840729
vn 0 -1 -3.683999E-07
vn 0 -1 -3.683999E-07
vn 0 -1 -3.683999E-07
vn 0 -1 -3.683999E-07
vn 1 0 0
vn 1 0 0
vn 1 0 0
vn 1 0 0
vn -1 0 0
vn -1 0 0
vn -1 0 0
vn -1 0 0
vn 0 1 3.683999E-07
vn 0 1 3.683999E-07
vn 0 1 3.683999E-07
vn 0 1 3.683999E-07
vn 0 -1 -3.683998E-07
vn 0 -1 -3.683998E-07
vn 0 -1 -3.683998E-07
vn 0 -1 -3.683998E-07
vn 1 0 0
vn 1 0 0
vn 1 0 0
vn 1 0 0
vn -1 0 0
vn -1 0 0
vn -1 0 0
vn -1 0 0
vn 0 1 3.683999E-07
vn 0 1 3.683999E-07
vn 0 1 3.683999E-07
vn 0 1 3.683999E-07
vn 0 -1 -3.683998E-07
vn 0 -1 -3.683998E-07
vn 0 -1 -3.683998E-07
vn 0 -1 -3.683998E-07
vn 1 0 0
vn 1 0 0
vn 1 0 0
vn 1 0 0
vn -1 0 0
vn -1 0 0
vn -1 0 0
vn -1 0 0
vn 0 1 3.683999E-07
vn 0 1 3.683999E-07
vn 0 1 3.683999E-07
vn 0 1 3.683999E-07
vn 0 -1 -3.683999E-07
vn 0 -1 -3.683999E-07
vn 0 -1 -3.683999E-07
vn 0 -1 -3.683999E-07
vn 1 0 0
vn 1 0 0
vn 1 0 0
vn 1 0 0
vn -1 0 0
vn -1 0 0
vn -1 0 0
vn -1 0 0
vn 0 1 3.683999E-07
vn 0 1 3.683999E-07
vn 0 1 3.683999E-07
vn 0 1 3.683999E-07
vn 0.8278264 0.5609843 0
vn 0.8278264 0.5609843 0
vn 0.8278264 0.5609843 0
vn 0.8278264 0.5609843 0
vn -0.8278262 0.5609847 0
vn -0.8278262 0.5609846 0
vn -0.8278262 0.5609846 0
vn -0.8278262 0.5609846 0
vn 0 1 0
vn 0 1 0
vn 0 1 0
vn 0 1 0
g prop_desert_fan_01_0
f 3/3/3 2/2/2 1/1/1
f 6/6/6 5/5/5 4/4/4
f 9/9/9 8/8/8 7/7/7
f 12/12/12 11/11/11 10/10/10
f 15/15/15 14/14/14 13/13/13
f 18/18/18 17/17/17 16/16/16
f 21/21/21 20/20/20 19/19/19
f 24/24/24 23/23/23 22/22/22
f 27/27/27 26/26/26 25/25/25
f 28/28/28 27/27/27 25/25/25
f 31/31/31 30/30/30 29/29/29
f 30/30/30 32/32/32 29/29/29
f 32/32/32 33/33/33 29/29/29
f 33/33/33 34/34/34 29/29/29
f 37/37/37 36/36/36 35/35/35
f 36/36/36 38/38/38 35/35/35
f 38/38/38 39/39/39 35/35/35
f 39/39/39 40/40/40 35/35/35
f 41/41/41 39/39/39 38/38/38
f 35/35/35 40/40/40 42/42/42
f 43/43/43 41/41/41 38/38/38
f 40/40/40 44/44/44 42/42/42
f 44/44/44 41/41/41 43/43/43
f 42/42/42 44/44/44 43/43/43
f 47/47/47 46/46/46 45/45/45
f 48/48/48 47/47/47 45/45/45
f 48/48/48 45/45/45 49/49/49
f 50/50/50 47/47/47 48/48/48
f 48/48/48 49/49/49 51/51/51
f 52/52/52 50/50/50 48/48/48
f 52/52/52 48/48/48 51/51/51
f 53/53/53 50/50/50 52/52/52
f 51/51/51 54/54/54 52/52/52
f 54/54/54 53/53/53 52/52/52
f 57/57/57 56/56/56 55/55/55
f 58/58/58 57/57/57 55/55/55
f 58/58/58 55/55/55 59/59/59
f 60/60/60 57/57/57 58/58/58
f 58/58/58 59/59/59 61/61/61
f 62/62/62 60/60/60 58/58/58
f 62/62/62 58/58/58 61/61/61
f 63/63/63 60/60/60 62/62/62
f 62/62/62 61/61/61 64/64/64
f 64/64/64 63/63/63 62/62/62
f 67/67/67 66/66/66 65/65/65
f 68/68/68 67/67/67 65/65/65
f 71/71/71 70/70/70 69/69/69
f 72/72/72 71/71/71 69/69/69
f 75/75/75 74/74/74 73/73/73
f 76/76/76 75/75/75 73/73/73
f 79/79/79 78/78/78 77/77/77
f 80/80/80 79/79/79 77/77/77
f 83/83/83 82/82/82 81/81/81
f 84/84/84 83/83/83 81/81/81
f 87/87/87 86/86/86 85/85/85
f 88/88/88 87/87/87 85/85/85
f 91/91/91 90/90/90 89/89/89
f 92/92/92 91/91/91 89/89/89
f 95/95/95 94/94/94 93/93/93
f 96/96/96 95/95/95 93/93/93
f 99/99/99 98/98/98 97/97/97
f 100/100/100 99/99/99 97/97/97
f 103/103/103 102/102/102 101/101/101
f 104/104/104 103/103/103 101/101/101
f 107/107/107 106/106/106 105/105/105
f 108/108/108 107/107/107 105/105/105
f 111/111/111 110/110/110 109/109/109
f 112/112/112 111/111/111 109/109/109
f 115/115/115 114/114/114 113/113/113
f 116/116/116 115/115/115 113/113/113
f 119/119/119 118/118/118 117/117/117
f 120/120/120 119/119/119 117/117/117
f 123/123/123 122/122/122 121/121/121
f 124/124/124 123/123/123 121/121/121
f 127/127/127 126/126/126 125/125/125
f 128/128/128 127/127/127 125/125/125
f 131/131/131 130/130/130 129/129/129
f 132/132/132 131/131/131 129/129/129
f 135/135/135 134/134/134 133/133/133
f 136/136/136 135/135/135 133/133/133
f 139/139/139 138/138/138 137/137/137
f 140/140/140 139/139/139 137/137/137
f 143/143/143 142/142/142 141/141/141
f 144/144/144 143/143/143 141/141/141
f 147/147/147 146/146/146 145/145/145
f 148/148/148 147/147/147 145/145/145
f 151/151/151 150/150/150 149/149/149
f 152/152/152 151/151/151 149/149/149
f 155/155/155 154/154/154 153/153/153
f 156/156/156 155/155/155 153/153/153
f 159/159/159 158/158/158 157/157/157
f 160/160/160 159/159/159 157/157/157
f 163/163/163 162/162/162 161/161/161
f 164/164/164 163/163/163 161/161/161
f 167/167/167 166/166/166 165/165/165
f 168/168/168 167/167/167 165/165/165
f 171/171/171 170/170/170 169/169/169
f 172/172/172 171/171/171 169/169/169
f 175/175/175 174/174/174 173/173/173
f 176/176/176 175/175/175 173/173/173
f 179/179/179 178/178/178 177/177/177
f 180/180/180 179/179/179 177/177/177
f 183/183/183 182/182/182 181/181/181
f 184/184/184 183/183/183 181/181/181
f 187/187/187 186/186/186 185/185/185
f 188/188/188 187/187/187 185/185/185
f 191/191/191 190/190/190 189/189/189
f 192/192/192 191/191/191 189/189/189
f 195/195/195 194/194/194 193/193/193
f 196/196/196 195/195/195 193/193/193
f 199/199/199 198/198/198 197/197/197
f 200/200/200 199/199/199 197/197/197
f 203/203/203 202/202/202 201/201/201
f 204/204/204 203/203/203 201/201/201
f 207/207/207 206/206/206 205/205/205
f 208/208/208 207/207/207 205/205/205
f 211/211/211 210/210/210 209/209/209
f 212/212/212 211/211/211 209/209/209
f 215/215/215 214/214/214 213/213/213
f 216/216/216 215/215/215 213/213/213
f 219/219/219 218/218/218 217/217/217
f 220/220/220 219/219/219 217/217/217
f 223/223/223 222/222/222 221/221/221
f 224/224/224 223/223/223 221/221/221
f 227/227/227 226/226/226 225/225/225
f 228/228/228 227/227/227 225/225/225
f 231/231/231 230/230/230 229/229/229
f 232/232/232 231/231/231 229/229/229
f 235/235/235 234/234/234 233/233/233
f 236/236/236 235/235/235 233/233/233
f 239/239/239 238/238/238 237/237/237
f 240/240/240 239/239/239 237/237/237
