g sb_city_01_prop_10
v 0.8499465 -0.01989808 -0.4872082
v 0.6731122 0.1297662 0.6658704
v 0.8104228 0.107048 0.54031
v -0.8408049 0.1879309 0.4668023
v -0.7136067 0.1976925 0.6041378
v -0.6639705 0.03826659 -0.6862763
v 0.7227483 -0.02965971 -0.6245438
v -0.8012812 0.06098479 -0.5607159
v 0.6586743 0.1279664 -0.4869645
v -0.6385824 0.1963213 -0.5051047
v -0.5972767 0.1894873 -0.5428756
v -0.6348431 0.3101465 0.4337562
v -0.6731068 0.30721 0.392443
v 0.6624135 0.2417916 0.4518963
v 0.696938 0.1309029 -0.4456513
v 0.6211079 0.2486257 0.4896673
v 0.7227483 -0.02965971 -0.6245438
v -0.6546625 0.2094008 -0.7070613
v -0.6639705 0.03826659 -0.6862763
v 0.7320563 0.1414745 -0.6453288
v -0.8012812 0.06098479 -0.5607159
v -0.8314969 0.3590651 0.4460173
v -0.8408049 0.1879309 0.4668023
v -0.7919732 0.232119 -0.5815008
v -0.7136067 0.1976925 0.6041378
v 0.6824202 0.3009004 0.6450855
v 0.6731122 0.1297662 0.6658704
v -0.7042987 0.3688267 0.5833529
v 0.8104228 0.107048 0.54031
v 0.8592545 0.1512361 -0.5079932
v 0.8499465 -0.01989808 -0.4872082
v 0.8197308 0.2781822 0.519525
v -0.6639705 0.03826659 -0.6862763
v -0.7919732 0.232119 -0.5815008
v -0.8012812 0.06098479 -0.5607159
v -0.6546625 0.2094008 -0.7070613
v 0.7320563 0.1414745 -0.6453288
v 0.8499465 -0.01989808 -0.4872082
v 0.8592545 0.1512361 -0.5079932
v 0.7227483 -0.02965971 -0.6245438
v -0.8408049 0.1879309 0.4668023
v -0.7042987 0.3688267 0.5833529
v -0.7136067 0.1976925 0.6041378
v -0.8314969 0.3590651 0.4460173
v 0.6731122 0.1297662 0.6658704
v 0.8197308 0.2781822 0.519525
v 0.8104228 0.107048 0.54031
v 0.6824202 0.3009004 0.6450855
v 0.2478472 0.2838939 0.3190475
v 0.1616208 0.2056518 -0.3637766
v 0.4095559 0.2759728 0.3262463
v 0.0222964 0.2269484 -0.2508234
v -0.1079021 0.218854 -0.3757749
v -0.2462739 0.3080976 0.2970508
v -0.4079574 0.3160174 0.2898531
v 0.1593458 0.1638257 -0.3586966
v 0.2455722 0.2420677 0.3241275
v 0.4072809 0.2341466 0.3313263
v 0.02002147 0.1851223 -0.2457434
v -0.1101771 0.1770279 -0.370695
v -0.2485489 0.2662715 0.3021307
v -0.4102324 0.2741913 0.2949331
v 0.2455722 0.2420677 0.3241275
v 0.4095559 0.2759728 0.3262463
v 0.4072809 0.2341466 0.3313263
v 0.2478472 0.2838939 0.3190475
v 0.4072809 0.2341466 0.3313263
v 0.1616208 0.2056518 -0.3637766
v 0.1593458 0.1638257 -0.3586966
v 0.4095559 0.2759728 0.3262463
v 0.1593458 0.1638257 -0.3586966
v -0.1079021 0.218854 -0.3757749
v -0.1101771 0.1770279 -0.370695
v 0.1616208 0.2056518 -0.3637766
v 0.02002147 0.1851223 -0.2457434
v 0.2478472 0.2838939 0.3190475
v 0.2455722 0.2420677 0.3241275
v 0.0222964 0.2269484 -0.2508234
v -0.2485489 0.2662715 0.3021307
v 0.0222964 0.2269484 -0.2508234
v 0.02002147 0.1851223 -0.2457434
v -0.2462739 0.3080976 0.2970508
v -0.1101771 0.1770279 -0.370695
v -0.4079574 0.3160174 0.2898531
v -0.4102324 0.2741913 0.2949331
v -0.1079021 0.218854 -0.3757749
v -0.4102324 0.2741913 0.2949331
v -0.2462739 0.3080976 0.2970508
v -0.2485489 0.2662715 0.3021307
v -0.4079574 0.3160174 0.2898531
v 0.5976469 -0.09273769 0.5222566
v 0.5575868 -0.09164716 0.565521
v 0.5956078 -0.09350955 0.5672136
v 0.5596259 -0.0908753 0.520564
v 0.6101791 0.1677772 0.5273963
v 0.5701189 0.1688677 0.5706606
v 0.5721581 0.1696396 0.5257037
v 0.6081399 0.1670053 0.5723532
v 0.5976469 -0.09273769 0.5222566
v 0.5721581 0.1696396 0.5257037
v 0.5596259 -0.0908753 0.520564
v 0.6101791 0.1677772 0.5273963
v 0.5596259 -0.0908753 0.520564
v 0.5701189 0.1688677 0.5706606
v 0.5575868 -0.09164716 0.565521
v 0.5721581 0.1696396 0.5257037
v 0.5575868 -0.09164716 0.565521
v 0.6081399 0.1670053 0.5723532
v 0.5956078 -0.09350955 0.5672136
v 0.5701189 0.1688677 0.5706606
v 0.5956078 -0.09350955 0.5672136
v 0.6101791 0.1677772 0.5273963
v 0.5976469 -0.09273769 0.5222566
v 0.6081399 0.1670053 0.5723532
v 0.1951893 -0.07302392 0.5043404
v 0.155104 -0.07193216 0.5476037
v 0.1931501 -0.07379579 0.5492974
v 0.1571431 -0.07116029 0.5026467
v 0.2077214 0.187491 0.5094801
v 0.1676361 0.1885827 0.5527433
v 0.1696753 0.1893546 0.5077863
v 0.2056822 0.1867191 0.554437
v 0.1951893 -0.07302392 0.5043404
v 0.1696753 0.1893546 0.5077863
v 0.1571431 -0.07116029 0.5026467
v 0.2077214 0.187491 0.5094801
v 0.1571431 -0.07116029 0.5026467
v 0.1676361 0.1885827 0.5527433
v 0.155104 -0.07193216 0.5476037
v 0.1696753 0.1893546 0.5077863
v 0.155104 -0.07193216 0.5476037
v 0.2056822 0.1867191 0.554437
v 0.1931501 -0.07379579 0.5492974
v 0.1676361 0.1885827 0.5527433
v 0.1931501 -0.07379579 0.5492974
v 0.2077214 0.187491 0.5094801
v 0.1951893 -0.07302392 0.5043404
v 0.2056822 0.1867191 0.554437
v -0.2072935 -0.05330892 0.4864231
v -0.2473536 -0.05221839 0.5296875
v -0.2093327 -0.05408078 0.5313801
v -0.2453145 -0.05144652 0.4847305
v -0.1947614 0.207206 0.4915627
v -0.2348215 0.2082965 0.5348271
v -0.2327824 0.2090684 0.4898701
v -0.1968006 0.2064341 0.5365196
v -0.2072935 -0.05330892 0.4864231
v -0.2327824 0.2090684 0.4898701
v -0.2453145 -0.05144652 0.4847305
v -0.1947614 0.207206 0.4915627
v -0.2453145 -0.05144652 0.4847305
v -0.2348215 0.2082965 0.5348271
v -0.2473536 -0.05221839 0.5296875
v -0.2327824 0.2090684 0.4898701
v -0.2473536 -0.05221839 0.5296875
v -0.1968006 0.2064341 0.5365196
v -0.2093327 -0.05408078 0.5313801
v -0.2348215 0.2082965 0.5348271
v -0.2093327 -0.05408078 0.5313801
v -0.1947614 0.207206 0.4915627
v -0.2072935 -0.05330892 0.4864231
v -0.1968006 0.2064341 0.5365196
v -0.6097512 -0.03359514 0.4685069
v -0.6498112 -0.03250462 0.5117713
v -0.6117902 -0.03436701 0.5134639
v -0.6477721 -0.03173275 0.4668143
v -0.597219 0.2269197 0.4736465
v -0.6372791 0.2280103 0.5169109
v -0.63524 0.2287821 0.471954
v -0.5992581 0.2261478 0.5186034
v -0.6097512 -0.03359514 0.4685069
v -0.63524 0.2287821 0.471954
v -0.6477721 -0.03173275 0.4668143
v -0.597219 0.2269197 0.4736465
v -0.6477721 -0.03173275 0.4668143
v -0.6372791 0.2280103 0.5169109
v -0.6498112 -0.03250462 0.5117713
v -0.63524 0.2287821 0.471954
v -0.6498112 -0.03250462 0.5117713
v -0.5992581 0.2261478 0.5186034
v -0.6117902 -0.03436701 0.5134639
v -0.6372791 0.2280103 0.5169109
v -0.6117902 -0.03436701 0.5134639
v -0.597219 0.2269197 0.4736465
v -0.6097512 -0.03359514 0.4685069
v -0.5992581 0.2261478 0.5186034
v -0.6095163 0.22171 -0.5854947
v 0.7320563 0.1414745 -0.6453288
v 0.6777282 0.1586563 -0.5281904
v -0.6546625 0.2094008 -0.7070613
v 0.8592545 0.1512361 -0.5079932
v -0.67379 0.2323442 -0.5267212
v 0.7372683 0.1632257 -0.4639051
v -0.7919732 0.232119 -0.5815008
v 0.8197308 0.2781822 0.519525
v -0.7095107 0.3470756 0.4019293
v 0.7015475 0.277957 0.4647453
v -0.8314969 0.3590651 0.4460173
v 0.6824202 0.3009004 0.6450855
v -0.6499706 0.3516448 0.4662146
v 0.637274 0.2885912 0.5235188
v -0.7042987 0.3688267 0.5833529
v 0.6777282 0.1586563 -0.5281904
v -0.5972767 0.1894873 -0.5428756
v -0.6095163 0.22171 -0.5854947
v 0.6586743 0.1279664 -0.4869645
v -0.6385824 0.1963213 -0.5051047
v 0.7372683 0.1632257 -0.4639051
v -0.67379 0.2323442 -0.5267212
v 0.696938 0.1309029 -0.4456513
v -0.6731068 0.30721 0.392443
v 0.7015475 0.277957 0.4647453
v -0.7095107 0.3470756 0.4019293
v 0.6624135 0.2417916 0.4518963
v -0.6348431 0.3101465 0.4337562
v 0.637274 0.2885912 0.5235188
v -0.6499706 0.3516448 0.4662146
v 0.6211079 0.2486257 0.4896673
vt 0.4604501 0.8041921
vt 0.4604501 0.8041921
vt 0.4604501 0.8041921
vt 0.4604501 0.8041921
vt 0.4604501 0.8041921
vt 0.4604501 0.8032156
vt 0.4604501 0.8032156
vt 0.4604501 0.8041921
vt 0.5649399 0.8032156
vt 0.604978 0.8041921
vt 0.603025 0.8032156
vt 0.603025 0.8334883
vt 0.604978 0.8315352
vt 0.5639634 0.8315352
vt 0.5639634 0.8041921
vt 0.5649399 0.8334883
vt 0.5629868 0.7934502
vt 0.604978 0.7983329
vt 0.604978 0.7934502
vt 0.5629868 0.7983329
vt 0.6147434 0.802239
vt 0.6098607 0.8344648
vt 0.6147434 0.8344648
vt 0.6098607 0.802239
vt 0.604978 0.8432537
vt 0.5629868 0.838371
vt 0.5629868 0.8432537
vt 0.604978 0.838371
vt 0.554198 0.8344648
vt 0.5590807 0.802239
vt 0.554198 0.802239
vt 0.5590807 0.8344648
vt 0.604978 0.7934502
vt 0.6098607 0.7983329
vt 0.6098607 0.7934502
vt 0.604978 0.7983329
vt 0.5629868 0.7983329
vt 0.5590807 0.7934502
vt 0.5590807 0.7983329
vt 0.5629868 0.7934502
vt 0.6098607 0.8432537
vt 0.604978 0.838371
vt 0.604978 0.8432537
vt 0.6098607 0.838371
vt 0.5629868 0.8432537
vt 0.5590807 0.838371
vt 0.5590807 0.8432537
vt 0.5629868 0.838371
vt 0.6108373 0.9291891
vt 0.6137668 0.9086818
vt 0.6059545 0.9291891
vt 0.617673 0.912588
vt 0.6225557 0.9086818
vt 0.6254854 0.9291891
vt 0.6303681 0.9291891
vt 0.4604501 0.8051686
vt 0.4594736 0.8051686
vt 0.4594736 0.8051686
vt 0.4604501 0.8051686
vt 0.4604501 0.8051686
vt 0.4594736 0.8051686
vt 0.4594736 0.8041921
vt 0.6108373 0.9301657
vt 0.6059545 0.9291891
vt 0.6059545 0.9301657
vt 0.6108373 0.9291891
vt 0.604978 0.9282126
vt 0.6137668 0.9086818
vt 0.6127903 0.9077053
vt 0.6059545 0.9291891
vt 0.6137668 0.9067287
vt 0.6225557 0.9086818
vt 0.6225557 0.9067287
vt 0.6137668 0.9086818
vt 0.617673 0.9145411
vt 0.6108373 0.9291891
vt 0.6118138 0.9291891
vt 0.617673 0.912588
vt 0.6245088 0.9291891
vt 0.617673 0.912588
vt 0.617673 0.9145411
vt 0.6254854 0.9291891
vt 0.6235323 0.9077053
vt 0.6303681 0.9291891
vt 0.6313446 0.9282126
vt 0.6225557 0.9086818
vt 0.6303681 0.9301657
vt 0.6254854 0.9291891
vt 0.6254854 0.9301657
vt 0.6303681 0.9291891
vt 0.4604501 0.8041921
vt 0.4604501 0.8041921
vt 0.4604501 0.8041921
vt 0.4604501 0.8041921
vt 0.4604501 0.8051686
vt 0.4604501 0.8051686
vt 0.4604501 0.8051686
vt 0.4604501 0.8051686
vt 0.6235323 0.8100513
vt 0.6313446 0.8090748
vt 0.6235323 0.8090748
vt 0.6313446 0.8100513
vt 0.6235323 0.8090748
vt 0.6313446 0.8071217
vt 0.6235323 0.8071217
vt 0.6313446 0.8090748
vt 0.6235323 0.8120044
vt 0.6313446 0.8110279
vt 0.6235323 0.8110279
vt 0.6313446 0.8120044
vt 0.6235323 0.8110279
vt 0.6313446 0.8100513
vt 0.6235323 0.8100513
vt 0.6313446 0.8110279
vt 0.4604501 0.8041921
vt 0.4604501 0.8041921
vt 0.4604501 0.8041921
vt 0.4604501 0.8041921
vt 0.4604501 0.8051686
vt 0.4604501 0.8051686
vt 0.4604501 0.8051686
vt 0.4604501 0.8051686
vt 0.6235323 0.8100513
vt 0.6313446 0.8090748
vt 0.6235323 0.8090748
vt 0.6313446 0.8100513
vt 0.6235323 0.8090748
vt 0.6313446 0.8071217
vt 0.6235323 0.8071217
vt 0.6313446 0.8090748
vt 0.6235323 0.8120044
vt 0.6313446 0.8110279
vt 0.6235323 0.8110279
vt 0.6313446 0.8120044
vt 0.6235323 0.8110279
vt 0.6313446 0.8100513
vt 0.6235323 0.8100513
vt 0.6313446 0.8110279
vt 0.4594736 0.8051686
vt 0.4594736 0.8051686
vt 0.4594736 0.8051686
vt 0.4594736 0.8051686
vt 0.4604501 0.8051686
vt 0.4604501 0.8051686
vt 0.4604501 0.8051686
vt 0.4604501 0.8051686
vt 0.6235323 0.8100513
vt 0.6313446 0.8090748
vt 0.6235323 0.8090748
vt 0.6313446 0.8100513
vt 0.6235323 0.8090748
vt 0.6313446 0.8071217
vt 0.6235323 0.8071217
vt 0.6313446 0.8090748
vt 0.6235323 0.8120044
vt 0.6313446 0.8110279
vt 0.6235323 0.8110279
vt 0.6313446 0.8120044
vt 0.6235323 0.8110279
vt 0.6313446 0.8100513
vt 0.6235323 0.8100513
vt 0.6313446 0.8110279
vt 0.4604501 0.8051686
vt 0.4604501 0.8051686
vt 0.4604501 0.8051686
vt 0.4604501 0.8051686
vt 0.4594736 0.8051686
vt 0.4594736 0.8051686
vt 0.4594736 0.8051686
vt 0.4594736 0.8051686
vt 0.6235323 0.8100513
vt 0.6313446 0.8090748
vt 0.6235323 0.8090748
vt 0.6313446 0.8100513
vt 0.6235323 0.8090748
vt 0.6313446 0.8071217
vt 0.6235323 0.8071217
vt 0.6313446 0.8090748
vt 0.6235323 0.8120044
vt 0.6313446 0.8110279
vt 0.6235323 0.8110279
vt 0.6313446 0.8120044
vt 0.6235323 0.8110279
vt 0.6313446 0.8100513
vt 0.6235323 0.8100513
vt 0.6313446 0.8110279
vt 0.6040015 0.802239
vt 0.5629868 0.7983329
vt 0.5649399 0.802239
vt 0.604978 0.7983329
vt 0.5590807 0.802239
vt 0.6059545 0.8041921
vt 0.5629868 0.8041921
vt 0.6098607 0.802239
vt 0.5590807 0.8344648
vt 0.6059545 0.8325117
vt 0.5629868 0.8325117
vt 0.6098607 0.8344648
vt 0.5629868 0.838371
vt 0.6040015 0.8344648
vt 0.5649399 0.8344648
vt 0.604978 0.838371
vt 0.5649399 0.802239
vt 0.603025 0.8032156
vt 0.6040015 0.802239
vt 0.5649399 0.8032156
vt 0.604978 0.8041921
vt 0.5629868 0.8041921
vt 0.6059545 0.8041921
vt 0.5639634 0.8041921
vt 0.604978 0.8315352
vt 0.5629868 0.8325117
vt 0.6059545 0.8325117
vt 0.5639634 0.8315352
vt 0.603025 0.8334883
vt 0.5649399 0.8344648
vt 0.6040015 0.8344648
vt 0.5649399 0.8334883
vn -0.05798346 -0.9910594 0.1201631
vn -0.0579808 -0.9910139 0.120539
vn -0.05798346 -0.9910594 0.1201631
vn -0.05798346 -0.9910594 0.1201631
vn -0.05798346 -0.9910594 0.1201631
vn -0.05798353 -0.991013 0.1205447
vn -0.05798346 -0.9910594 0.1201631
vn -0.05798346 -0.9910594 0.1201631
vn 0.05798346 0.9910594 -0.1201631
vn 0.05798345 0.9910594 -0.1201631
vn 0.05798346 0.9910594 -0.1201631
vn 0.05798346 0.9910594 -0.1201631
vn 0.05035352 0.9914302 -0.1205433
vn 0.05798345 0.9910594 -0.1201631
vn 0.05798346 0.9910594 -0.1201631
vn 0.05798346 0.9910594 -0.1201631
vn 0.04196198 -0.1266012 -0.9910657
vn 0.04196172 -0.1266481 -0.9910597
vn 0.04196198 -0.1266012 -0.9910657
vn 0.04196172 -0.1266481 -0.9910597
vn -0.9975949 0.05272076 -0.04499855
vn -0.9975999 0.05262568 -0.04499877
vn -0.9975899 0.05281583 -0.04499833
vn -0.9975899 0.05281583 -0.04499833
vn -0.03433099 0.1262618 0.9914027
vn -0.03434398 0.1263095 0.9913961
vn -0.03434398 0.1263095 0.9913961
vn -0.03433099 0.1262618 0.9914027
vn 0.9975949 -0.05272076 0.04499855
vn 0.9975949 -0.05272076 0.04499855
vn 0.9975943 -0.05273264 0.04499852
vn 0.9975899 -0.05281583 0.04499833
vn -0.6815639 -0.05554879 -0.7296473
vn -0.681375 -0.05550955 -0.7298266
vn -0.681375 -0.05550955 -0.7298266
vn -0.6815647 -0.05552501 -0.7296482
vn 0.7346953 -0.1249287 -0.6667951
vn 0.7348832 -0.1249487 -0.6665841
vn 0.7348822 -0.1249605 -0.6665831
vn 0.7348843 -0.124937 -0.6665851
vn -0.7348822 0.1249605 0.6665831
vn -0.7348997 0.1247727 0.666599
vn -0.7348822 0.1249605 0.6665831
vn -0.7348997 0.1247727 0.666599
vn 0.6815647 0.05552501 0.7296482
vn 0.681375 0.05550955 0.7298266
vn 0.681375 0.05550955 0.7298266
vn 0.6815647 0.05552501 0.7296482
vn 0.05779336 0.9910704 -0.1201644
vn 0.05779336 0.9910704 -0.1201644
vn 0.05798346 0.9910594 -0.1201631
vn 0.05781713 0.991069 -0.1201642
vn 0.05779336 0.9910704 -0.1201644
vn 0.05779336 0.9910704 -0.1201644
vn 0.05798346 0.9910594 -0.1201631
vn -0.049973 -0.9914492 0.1205456
vn -0.05779336 -0.9910704 0.1201644
vn -0.05798346 -0.9910594 0.1201631
vn -0.05781713 -0.991069 0.1201642
vn -0.05779336 -0.9910704 0.1201644
vn -0.05779336 -0.9910704 0.1201644
vn -0.05798346 -0.9910594 0.1201631
vn -0.03394997 0.1262634 0.9914156
vn -0.03394997 0.1262634 0.9914156
vn -0.03394997 0.1262634 0.9914156
vn -0.03394997 0.1262634 0.9914156
vn 0.941734 -0.08677379 -0.3249726
vn 0.9412346 -0.09460028 -0.3242348
vn 0.9412346 -0.09460028 -0.3242348
vn 0.941734 -0.08677379 -0.3249726
vn 0.04186653 -0.1266486 -0.9910637
vn 0.04186653 -0.1266486 -0.9910637
vn 0.04186653 -0.1266486 -0.9910637
vn 0.04177133 -0.1266491 -0.9910677
vn -0.9270359 0.09841972 0.3618259
vn -0.9270275 0.09842514 0.3618459
vn -0.9269635 0.09841835 0.3620117
vn -0.9270375 0.09841861 0.3618219
vn 0.8964417 0.008964416 0.443071
vn 0.8960136 0.001144395 0.4440252
vn 0.8960136 0.001144395 0.4440252
vn 0.8964417 0.008964416 0.443071
vn -0.9135694 -0.00362414 -0.4066666
vn -0.9135143 -0.003623543 -0.4067903
vn -0.9135143 -0.003623543 -0.4067903
vn -0.9135694 -0.00362414 -0.4066666
vn -0.04196172 0.1266481 0.9910597
vn -0.04177133 0.1266491 0.9910677
vn -0.03394997 0.1262634 0.9914156
vn -0.04196172 0.1266481 0.9910597
vn -0.05264338 -0.9986029 -0.004577685
vn -0.05264338 -0.9986029 -0.004577685
vn -0.05264338 -0.9986029 -0.004577685
vn -0.05264338 -0.9986029 -0.004577685
vn 0.05263837 0.9986032 0.00457725
vn 0.05263837 0.9986032 0.00457725
vn 0.05263837 0.9986032 0.00457725
vn 0.05263837 0.9986032 0.00457725
vn 0.04920938 0.01449578 -0.9986833
vn 0.04920938 0.01449578 -0.9986833
vn 0.04920938 0.01449578 -0.9986833
vn 0.04920938 0.01449578 -0.9986833
vn -0.9975931 0.05274082 -0.04501567
vn -0.9975882 0.05283593 -0.04501545
vn -0.9975931 0.05274082 -0.04501567
vn -0.9975882 0.05283593 -0.04501545
vn -0.04920938 -0.01449578 0.9986833
vn -0.04119753 -0.01487689 0.9990402
vn -0.04920938 -0.01449578 0.9986833
vn -0.04119753 -0.01487689 0.9990402
vn 0.9980223 -0.04501783 0.0438733
vn 0.9980223 -0.04501783 0.0438733
vn 0.9980223 -0.04501783 0.0438733
vn 0.9980223 -0.04501783 0.0438733
vn -0.05264338 -0.9986029 -0.004577685
vn -0.05264338 -0.9986029 -0.004577685
vn -0.05264338 -0.9986029 -0.004577685
vn -0.05264338 -0.9986029 -0.004577685
vn 0.05263837 0.9986032 0.00457725
vn 0.05263837 0.9986032 0.00457725
vn 0.05263837 0.9986032 0.00457725
vn 0.05263837 0.9986032 0.00457725
vn 0.0490191 0.01449592 -0.9986927
vn 0.0490191 0.01449592 -0.9986927
vn 0.04911423 0.01449585 -0.9986879
vn 0.0490191 0.01449592 -0.9986927
vn -0.9975905 0.05278837 -0.04501556
vn -0.9975882 0.05283593 -0.04501545
vn -0.9975905 0.05278837 -0.04501556
vn -0.9975882 0.05283593 -0.04501545
vn -0.04911423 -0.01449585 0.9986879
vn -0.04119753 -0.01487689 0.9990402
vn -0.0490191 -0.01449592 0.9986927
vn -0.04119753 -0.01487689 0.9990402
vn 0.9975905 -0.05278837 0.04501556
vn 0.9975882 -0.05283593 0.04501545
vn 0.9975905 -0.05278837 0.04501556
vn 0.9975882 -0.05283593 0.04501545
vn -0.05264338 -0.9986029 -0.004577685
vn -0.05264338 -0.9986029 -0.004577685
vn -0.05264338 -0.9986029 -0.004577685
vn -0.05264338 -0.9986029 -0.004577685
vn 0.05263837 0.9986032 0.00457725
vn 0.05263837 0.9986032 0.00457725
vn 0.05263837 0.9986032 0.00457725
vn 0.05263837 0.9986032 0.00457725
vn 0.0490191 0.01449592 -0.9986927
vn 0.0490191 0.01449592 -0.9986927
vn 0.0490191 0.01449592 -0.9986927
vn 0.0490191 0.01449592 -0.9986927
vn -0.9975905 0.05278837 -0.04501556
vn -0.9975882 0.05283593 -0.04501545
vn -0.9975905 0.05278837 -0.04501556
vn -0.9975882 0.05283593 -0.04501545
vn -0.0490191 -0.01449592 0.9986927
vn -0.04119753 -0.01487689 0.9990402
vn -0.0490191 -0.01449592 0.9986927
vn -0.04119753 -0.01487689 0.9990402
vn 0.9975905 -0.05278837 0.04501556
vn 0.9975882 -0.05283593 0.04501545
vn 0.9975905 -0.05278837 0.04501556
vn 0.9975882 -0.05283593 0.04501545
vn -0.05264338 -0.9986029 -0.004577685
vn -0.05264338 -0.9986029 -0.004577685
vn -0.05264338 -0.9986029 -0.004577685
vn -0.05264338 -0.9986029 -0.004577685
vn 0.05263837 0.9986032 0.00457725
vn 0.05263837 0.9986032 0.00457725
vn 0.05263837 0.9986032 0.00457725
vn 0.05263837 0.9986032 0.00457725
vn 0.04920938 0.01449578 -0.9986833
vn 0.04920938 0.01449578 -0.9986833
vn 0.04882882 0.01449605 -0.9987019
vn 0.04920938 0.01449578 -0.9986833
vn -0.9975949 0.05272076 -0.04499855
vn -0.9975882 0.05283593 -0.04501545
vn -0.9975949 0.05272076 -0.04499855
vn -0.9975882 0.05283593 -0.04501545
vn -0.04882882 -0.01449605 0.9987019
vn -0.04119753 -0.01487689 0.9990402
vn -0.04920938 -0.01449578 0.9986833
vn -0.04119753 -0.01487689 0.9990402
vn 0.9980234 -0.04499403 0.04387335
vn 0.9980223 -0.04501783 0.0438733
vn 0.9980234 -0.04499403 0.04387336
vn 0.9980223 -0.04501783 0.0438733
vn 0.05798345 0.9910594 -0.1201631
vn 0.0579808 0.9910139 -0.120539
vn 0.05798345 0.9910594 -0.1201631
vn 0.0579808 0.9910139 -0.120539
vn 0.05798345 0.9910594 -0.1201631
vn 0.05798345 0.9910594 -0.1201631
vn 0.05798345 0.9910594 -0.1201631
vn 0.05798345 0.9910594 -0.1201631
vn 0.05798345 0.9910594 -0.1201631
vn 0.05798345 0.9910594 -0.1201631
vn 0.05798345 0.9910594 -0.1201631
vn 0.05798345 0.9910594 -0.1201631
vn 0.0579808 0.9910139 -0.120539
vn 0.05798345 0.9910594 -0.1201631
vn 0.05798345 0.9910594 -0.1201631
vn 0.05798345 0.9910594 -0.1201631
vn -0.2372618 0.8298444 0.5050397
vn 0.2712157 0.8050642 0.5275545
vn 0.2712157 0.8050642 0.5275545
vn -0.2372618 0.8298444 0.5050397
vn 0.6454178 0.7423068 0.1800456
vn -0.5835956 0.8023487 0.1251107
vn 0.6454178 0.7423068 0.1800456
vn -0.5835956 0.8023487 0.1251107
vn 0.6637784 0.6826617 -0.3055669
vn -0.5646389 0.7426146 -0.360148
vn 0.6638649 0.6825599 -0.3056068
vn -0.5646389 0.7426146 -0.360148
vn 0.3181248 0.6549404 -0.685456
vn -0.1907335 0.6799651 -0.7080029
vn 0.3181248 0.6549404 -0.685456
vn -0.1907335 0.6799651 -0.7080029
g sb_city_01_prop_10_0
f 3/3/3 2/2/2 1/1/1
f 2/2/2 4/4/4 1/1/1
f 5/5/5 4/4/4 2/2/2
f 4/4/4 6/6/6 1/1/1
f 6/6/6 7/7/7 1/1/1
f 8/8/8 6/6/6 4/4/4
f 11/11/11 10/10/10 9/9/9
f 10/10/10 12/12/12 9/9/9
f 13/13/13 12/12/12 10/10/10
f 12/12/12 14/14/14 9/9/9
f 14/14/14 15/15/15 9/9/9
f 16/16/16 14/14/14 12/12/12
f 19/19/19 18/18/18 17/17/17
f 20/20/20 17/17/17 18/18/18
f 23/23/23 22/22/22 21/21/21
f 24/24/24 21/21/21 22/22/22
f 27/27/27 26/26/26 25/25/25
f 28/28/28 25/25/25 26/26/26
f 31/31/31 30/30/30 29/29/29
f 32/32/32 29/29/29 30/30/30
f 35/35/35 34/34/34 33/33/33
f 36/36/36 33/33/33 34/34/34
f 39/39/39 38/38/38 37/37/37
f 40/40/40 37/37/37 38/38/38
f 43/43/43 42/42/42 41/41/41
f 44/44/44 41/41/41 42/42/42
f 47/47/47 46/46/46 45/45/45
f 48/48/48 45/45/45 46/46/46
f 51/51/51 50/50/50 49/49/49
f 52/52/52 49/49/49 50/50/50
f 53/53/53 52/52/52 50/50/50
f 52/52/52 53/53/53 54/54/54
f 55/55/55 54/54/54 53/53/53
f 58/58/58 57/57/57 56/56/56
f 59/59/59 56/56/56 57/57/57
f 60/60/60 56/56/56 59/59/59
f 59/59/59 61/61/61 60/60/60
f 62/62/62 60/60/60 61/61/61
f 65/65/65 64/64/64 63/63/63
f 66/66/66 63/63/63 64/64/64
f 69/69/69 68/68/68 67/67/67
f 70/70/70 67/67/67 68/68/68
f 73/73/73 72/72/72 71/71/71
f 74/74/74 71/71/71 72/72/72
f 77/77/77 76/76/76 75/75/75
f 78/78/78 75/75/75 76/76/76
f 81/81/81 80/80/80 79/79/79
f 82/82/82 79/79/79 80/80/80
f 85/85/85 84/84/84 83/83/83
f 86/86/86 83/83/83 84/84/84
f 89/89/89 88/88/88 87/87/87
f 90/90/90 87/87/87 88/88/88
f 93/93/93 92/92/92 91/91/91
f 94/94/94 91/91/91 92/92/92
f 97/97/97 96/96/96 95/95/95
f 98/98/98 95/95/95 96/96/96
f 101/101/101 100/100/100 99/99/99
f 102/102/102 99/99/99 100/100/100
f 105/105/105 104/104/104 103/103/103
f 106/106/106 103/103/103 104/104/104
f 109/109/109 108/108/108 107/107/107
f 110/110/110 107/107/107 108/108/108
f 113/113/113 112/112/112 111/111/111
f 114/114/114 111/111/111 112/112/112
f 117/117/117 116/116/116 115/115/115
f 118/118/118 115/115/115 116/116/116
f 121/121/121 120/120/120 119/119/119
f 122/122/122 119/119/119 120/120/120
f 125/125/125 124/124/124 123/123/123
f 126/126/126 123/123/123 124/124/124
f 129/129/129 128/128/128 127/127/127
f 130/130/130 127/127/127 128/128/128
f 133/133/133 132/132/132 131/131/131
f 134/134/134 131/131/131 132/132/132
f 137/137/137 136/136/136 135/135/135
f 138/138/138 135/135/135 136/136/136
f 141/141/141 140/140/140 139/139/139
f 142/142/142 139/139/139 140/140/140
f 145/145/145 144/144/144 143/143/143
f 146/146/146 143/143/143 144/144/144
f 149/149/149 148/148/148 147/147/147
f 150/150/150 147/147/147 148/148/148
f 153/153/153 152/152/152 151/151/151
f 154/154/154 151/151/151 152/152/152
f 157/157/157 156/156/156 155/155/155
f 158/158/158 155/155/155 156/156/156
f 161/161/161 160/160/160 159/159/159
f 162/162/162 159/159/159 160/160/160
f 165/165/165 164/164/164 163/163/163
f 166/166/166 163/163/163 164/164/164
f 169/169/169 168/168/168 167/167/167
f 170/170/170 167/167/167 168/168/168
f 173/173/173 172/172/172 171/171/171
f 174/174/174 171/171/171 172/172/172
f 177/177/177 176/176/176 175/175/175
f 178/178/178 175/175/175 176/176/176
f 181/181/181 180/180/180 179/179/179
f 182/182/182 179/179/179 180/180/180
f 185/185/185 184/184/184 183/183/183
f 186/186/186 183/183/183 184/184/184
f 189/189/189 188/188/188 187/187/187
f 190/190/190 187/187/187 188/188/188
f 188/188/188 189/189/189 191/191/191
f 187/187/187 190/190/190 192/192/192
f 193/193/193 191/191/191 189/189/189
f 194/194/194 192/192/192 190/190/190
f 191/191/191 193/193/193 195/195/195
f 192/192/192 194/194/194 196/196/196
f 197/197/197 195/195/195 193/193/193
f 198/198/198 196/196/196 194/194/194
f 195/195/195 197/197/197 199/199/199
f 196/196/196 198/198/198 200/200/200
f 201/201/201 199/199/199 197/197/197
f 202/202/202 200/200/200 198/198/198
f 199/199/199 201/201/201 202/202/202
f 200/200/200 202/202/202 201/201/201
f 205/205/205 204/204/204 203/203/203
f 206/206/206 203/203/203 204/204/204
f 204/204/204 205/205/205 207/207/207
f 203/203/203 206/206/206 208/208/208
f 209/209/209 207/207/207 205/205/205
f 210/210/210 208/208/208 206/206/206
f 207/207/207 209/209/209 211/211/211
f 208/208/208 210/210/210 212/212/212
f 213/213/213 211/211/211 209/209/209
f 214/214/214 212/212/212 210/210/210
f 211/211/211 213/213/213 215/215/215
f 212/212/212 214/214/214 216/216/216
f 217/217/217 215/215/215 213/213/213
f 218/218/218 216/216/216 214/214/214
f 215/215/215 217/217/217 218/218/218
f 216/216/216 218/218/218 217/217/217
