g sb_city_01_prop_23 (1)
v -0.1449624 -0.1262731 0.4264221
v -0.1287342 -0.1523458 0.3859209
v -0.1287342 -0.122043 0.4162237
v -0.1449624 -0.1625441 0.390151
v -0.1449624 -0.1625441 0.390151
v -0.1287342 -0.1523458 0.1072276
v -0.1287342 -0.1523458 0.3859209
v -0.1449624 -0.1625441 0.1029975
v -0.1449624 -0.1625441 0.1029975
v -0.1287342 -0.122043 0.07692479
v -0.1287342 -0.1523458 0.1072276
v -0.1449624 -0.1262731 0.06672644
v 0.1449598 -0.2068601 0.7787958
v 0.08721536 -0.2292719 0.7563841
v 0.08721536 -0.2068601 0.7787958
v 0.1449598 -0.2292719 0.7563841
v 0.08721536 -0.2068601 0.7787958
v 0.1449599 0.2068576 0.7787958
v 0.1449598 -0.2068601 0.7787958
v 0.08721543 0.2068576 0.7787958
v -0.1449624 -0.1262731 0.06672644
v -0.1287342 0.1220406 0.07692479
v -0.1287342 -0.122043 0.07692479
v -0.1449623 0.1262707 0.06672644
v 0.1449598 -0.2068601 0.7787958
v 0.1449598 -0.2292719 -1.234469E-06
v 0.1449598 -0.2292719 0.7563841
v 0.1449599 0.2068576 0.7787958
v 0.1449599 0.2292693 -1.234469E-06
v 0.1449599 0.2292693 0.7563841
v 0.08721536 -0.2292719 0.6890565
v 0.08721536 -0.2068601 0.7787958
v 0.08721536 -0.2292719 0.7563841
v 0.08721543 0.2068576 0.7787958
v 0.08721543 0.2292693 0.6890565
v 0.08721543 0.2292693 0.7563841
v -0.1449623 0.1262707 0.4264221
v -0.1287342 0.1523434 0.3859209
v -0.1449623 0.1625417 0.390151
v -0.1287342 0.1220406 0.4162237
v -0.1449623 0.1625417 0.390151
v -0.1287342 0.1523434 0.1072276
v -0.1449623 0.1625417 0.1029975
v -0.1287342 0.1523434 0.3859209
v -0.1449623 0.1625417 0.1029975
v -0.1287342 0.1220406 0.07692479
v -0.1449623 0.1262707 0.06672644
v -0.1287342 0.1523434 0.1072276
v 0.1449599 0.2068576 0.7787958
v 0.08721543 0.2292693 0.7563841
v 0.1449599 0.2292693 0.7563841
v 0.08721543 0.2068576 0.7787958
v -0.1449624 -0.2292718 -1.234469E-06
v 0.1449599 0.2292693 -1.234469E-06
v -0.1449623 0.2292694 -1.234469E-06
v 0.1449598 -0.2292719 -1.234469E-06
v -0.1449624 -0.1262731 0.4264221
v -0.1287342 0.1220406 0.4162237
v -0.1449623 0.1262707 0.4264221
v -0.1287342 -0.122043 0.4162237
v -0.1287342 -0.122043 0.07692479
v -0.1287342 -0.1523458 0.3859209
v -0.1287342 -0.1523458 0.1072276
v -0.1287342 -0.122043 0.4162237
v -0.1287342 0.1220406 0.07692479
v -0.1287342 0.1523434 0.3859209
v -0.1287342 0.1220406 0.4162237
v -0.1287342 0.1523434 0.1072276
v 0.02874793 -0.1112602 0.639726
v 0.02257971 -0.05794571 0.6101924
v 0.01187375 -0.0579457 0.6254822
v 0.03946927 -0.1112602 0.6244208
v 0.01187375 -0.0579457 0.6254822
v -0.01816753 -0.03585697 0.575798
v -0.02887348 -0.03585697 0.5911031
v 0.02257971 -0.05794571 0.6101924
v -0.02887348 -0.03585697 0.5911031
v -0.05891477 -0.05794569 0.5414189
v -0.06962073 -0.05794569 0.5567241
v -0.01816753 -0.03585697 0.575798
v -0.06962073 -0.05794569 0.5567241
v -0.07578897 -0.1112601 0.5271751
v -0.08649493 -0.1112601 0.5424802
v -0.05891477 -0.05794569 0.5414189
v -0.02887351 -0.186648 0.5911031
v 0.02257969 -0.1645746 0.6101924
v 0.01187374 -0.1645746 0.6254822
v -0.01816755 -0.186648 0.5758133
v 0.01187374 -0.1645746 0.6254822
v 0.03946927 -0.1112602 0.6244208
v 0.02874793 -0.1112602 0.639726
v 0.02257969 -0.1645746 0.6101924
v -0.06962074 -0.1645746 0.5567241
v -0.01816755 -0.186648 0.5758133
v -0.02887351 -0.186648 0.5911031
v -0.05891479 -0.1645746 0.5414189
v -0.08649493 -0.1112601 0.5424802
v -0.05891479 -0.1645746 0.5414189
v -0.06962074 -0.1645746 0.5567241
v -0.07578897 -0.1112601 0.5271751
v 0.01187379 0.1645722 0.6254822
v -0.01816749 0.1866609 0.5758133
v -0.02887345 0.1866609 0.5911031
v 0.02257975 0.1645722 0.6101924
v 0.02874797 0.1112577 0.639726
v 0.02257975 0.1645722 0.6101924
v 0.01187379 0.1645722 0.6254822
v 0.03946931 0.1112577 0.6244208
v -0.02887345 0.1866609 0.5911031
v -0.05891473 0.1645722 0.5414189
v -0.06962069 0.1645722 0.5567241
v -0.01816749 0.1866609 0.5758133
v -0.06962069 0.1645722 0.5567241
v -0.07578894 0.1112577 0.5271751
v -0.08649489 0.1112577 0.5424802
v -0.05891473 0.1645722 0.5414189
v -0.02887347 0.03585451 0.5911031
v 0.02257973 0.05794323 0.6101924
v 0.01187377 0.05794324 0.6254822
v -0.01816751 0.03585451 0.575798
v -0.06962071 0.05794325 0.5567241
v -0.01816751 0.03585451 0.575798
v -0.02887347 0.03585451 0.5911031
v -0.05891475 0.05794325 0.5414189
v 0.01187377 0.05794324 0.6254822
v 0.03946931 0.1112577 0.6244208
v 0.02874797 0.1112577 0.639726
v 0.02257973 0.05794323 0.6101924
v -0.08649489 0.1112577 0.5424802
v -0.05891475 0.05794325 0.5414189
v -0.06962071 0.05794325 0.5567241
v -0.07578894 0.1112577 0.5271751
v -0.01816753 -0.03585697 0.575798
v -0.07578897 -0.1112601 0.5271751
v -0.05891477 -0.05794569 0.5414189
v 0.03946927 -0.1112602 0.6244208
v 0.02257971 -0.05794571 0.6101924
v -0.01816755 -0.186648 0.5758133
v -0.05891479 -0.1645746 0.5414189
v 0.02257969 -0.1645746 0.6101924
v -0.05891473 0.1645722 0.5414189
v -0.05891475 0.05794325 0.5414189
v -0.07578894 0.1112577 0.5271751
v 0.02257975 0.1645722 0.6101924
v -0.01816749 0.1866609 0.5758133
v 0.02257973 0.05794323 0.6101924
v -0.01816751 0.03585451 0.575798
v 0.03946931 0.1112577 0.6244208
v 0.08721543 0.2292693 0.6890565
v 0.1449599 0.2292693 0.7563841
v 0.08721543 0.2292693 0.7563841
v 0.1449599 0.2292693 -1.234469E-06
v -0.1449623 0.2292694 0.4931498
v -0.1449623 0.2292694 -1.234469E-06
v 0.1449598 -0.2292719 0.7563841
v 0.08721536 -0.2292719 0.6890565
v 0.08721536 -0.2292719 0.7563841
v 0.1449598 -0.2292719 -1.234469E-06
v -0.1449624 -0.2292718 0.4931498
v -0.1449624 -0.2292718 -1.234469E-06
v 0.08721536 -0.2292719 0.6890565
v -0.02887351 -0.186648 0.5911031
v 0.01187374 -0.1645746 0.6254822
v 0.02874793 -0.1112602 0.639726
v -0.1449624 -0.2292718 0.4931498
v -0.06962074 -0.1645746 0.5567241
v -0.08649493 -0.1112601 0.5424802
v -0.1449623 0.2292694 0.4931498
v 0.02874797 0.1112577 0.639726
v 0.01187375 -0.0579457 0.6254822
v 0.08721543 0.2292693 0.6890565
v 0.01187377 0.05794324 0.6254822
v 0.01187379 0.1645722 0.6254822
v -0.02887347 0.03585451 0.5911031
v -0.02887345 0.1866609 0.5911031
v -0.02887348 -0.03585697 0.5911031
v -0.06962069 0.1645722 0.5567241
v -0.06962071 0.05794325 0.5567241
v -0.06962073 -0.05794569 0.5567241
v -0.08649489 0.1112577 0.5424802
v -0.1449623 0.2292694 0.4931498
v -0.1449624 -0.1262731 0.4264221
v -0.1449623 0.1262707 0.4264221
v -0.1449623 0.1625417 0.390151
v -0.1449624 -0.2292718 0.4931498
v -0.1449624 -0.1625441 0.390151
v -0.1449623 0.2292694 -1.234469E-06
v -0.1449623 0.1625417 0.1029975
v -0.1449623 0.1262707 0.06672644
v -0.1449624 -0.2292718 -1.234469E-06
v -0.1449624 -0.1625441 0.1029975
v -0.1449624 -0.1262731 0.06672644
vt 0.5473621 0.7104443
vt 0.5502918 0.7123974
vt 0.5483387 0.7104443
vt 0.5502918 0.7133739
vt 0.5502918 0.7133739
vt 0.5678695 0.7123974
vt 0.5502918 0.7123974
vt 0.568846 0.7133739
vt 0.568846 0.7133739
vt 0.5698226 0.7104443
vt 0.5678695 0.7123974
vt 0.5717757 0.7104443
vt 0.5131833 0.7163035
vt 0.5170894 0.7182566
vt 0.5170894 0.7163035
vt 0.5131833 0.7182566
vt 0.5170894 0.7163035
vt 0.5131833 0.6889604
vt 0.5131833 0.7163035
vt 0.5170894 0.6889604
vt 0.5717757 0.7104443
vt 0.5698226 0.6948196
vt 0.5698226 0.7104443
vt 0.5717757 0.6938431
vt 0.5249017 0.6401334
vt 0.5756818 0.6391569
vt 0.5268549 0.6391569
vt 0.5249017 0.6674765
vt 0.5756818 0.6684531
vt 0.5258783 0.6684531
vt 0.5229487 0.7172801
vt 0.5170894 0.7163035
vt 0.5190426 0.7172801
vt 0.5170894 0.6889604
vt 0.5229487 0.6879839
vt 0.5190426 0.6879839
vt 0.5473621 0.6948196
vt 0.5502918 0.6928666
vt 0.5502918 0.6918901
vt 0.5483387 0.6948196
vt 0.5502918 0.6918901
vt 0.5678695 0.6928666
vt 0.568846 0.6918901
vt 0.5502918 0.6928666
vt 0.568846 0.6918901
vt 0.5698226 0.6948196
vt 0.5717757 0.6938431
vt 0.5678695 0.6928666
vt 0.5131833 0.6889604
vt 0.5170894 0.6870074
vt 0.5131833 0.6870074
vt 0.5170894 0.6889604
vt 0.5942361 0.6391569
vt 0.5756818 0.6684531
vt 0.5942361 0.6684531
vt 0.5756818 0.6391569
vt 0.5473621 0.7104443
vt 0.5483387 0.6948196
vt 0.5473621 0.6948196
vt 0.5483387 0.7104443
vt 0.5698226 0.7104443
vt 0.5502918 0.7123974
vt 0.5678695 0.7123974
vt 0.5483387 0.7104443
vt 0.5698226 0.6948196
vt 0.5502918 0.6928666
vt 0.5483387 0.6948196
vt 0.5678695 0.6928666
vt 0.5278314 0.7104443
vt 0.5297844 0.7065381
vt 0.5288079 0.7065381
vt 0.5288079 0.7104443
vt 0.5288079 0.7065381
vt 0.5336906 0.7055616
vt 0.5327141 0.7045851
vt 0.5297844 0.7065381
vt 0.5327141 0.7045851
vt 0.5366203 0.7065381
vt 0.5366203 0.7065381
vt 0.5336906 0.7055616
vt 0.5366203 0.7065381
vt 0.5375968 0.7104443
vt 0.5385733 0.7104443
vt 0.5366203 0.7065381
vt 0.5336906 0.715327
vt 0.5297844 0.7133739
vt 0.5297844 0.7143505
vt 0.5336906 0.7143505
vt 0.5297844 0.7143505
vt 0.5288079 0.7104443
vt 0.5278314 0.7104443
vt 0.5297844 0.7133739
vt 0.5375968 0.7143505
vt 0.5336906 0.7143505
vt 0.5336906 0.715327
vt 0.5366203 0.7133739
vt 0.5385733 0.7104443
vt 0.5366203 0.7133739
vt 0.5375968 0.7143505
vt 0.5375968 0.7104443
vt 0.5288079 0.6918901
vt 0.5327141 0.6909135
vt 0.5327141 0.6899369
vt 0.5297844 0.6918901
vt 0.5278314 0.6957962
vt 0.5297844 0.6918901
vt 0.5288079 0.6918901
vt 0.5288079 0.6957962
vt 0.5327141 0.6899369
vt 0.5366203 0.6918901
vt 0.5366203 0.6918901
vt 0.5327141 0.6909135
vt 0.5366203 0.6918901
vt 0.5375968 0.6948196
vt 0.5385733 0.6957962
vt 0.5366203 0.6918901
vt 0.5327141 0.7006789
vt 0.5297844 0.6987258
vt 0.5288079 0.6987258
vt 0.5327141 0.6997024
vt 0.5366203 0.6987258
vt 0.5327141 0.6997024
vt 0.5327141 0.7006789
vt 0.5366203 0.6987258
vt 0.5288079 0.6987258
vt 0.5288079 0.6957962
vt 0.5278314 0.6957962
vt 0.5297844 0.6987258
vt 0.5385733 0.6957962
vt 0.5366203 0.6987258
vt 0.5366203 0.6987258
vt 0.5375968 0.6948196
vt 0.5336906 0.7055616
vt 0.5375968 0.7104443
vt 0.5366203 0.7065381
vt 0.5288079 0.7104443
vt 0.5297844 0.7065381
vt 0.5336906 0.7143505
vt 0.5366203 0.7133739
vt 0.5297844 0.7133739
vt 0.5366203 0.6918901
vt 0.5366203 0.6987258
vt 0.5375968 0.6948196
vt 0.5297844 0.6918901
vt 0.5327141 0.6909135
vt 0.5297844 0.6987258
vt 0.5327141 0.6997024
vt 0.5288079 0.6957962
vt 0.530761 0.6723592
vt 0.5258783 0.6684531
vt 0.5258783 0.6723592
vt 0.5756818 0.6684531
vt 0.543456 0.6879839
vt 0.5756818 0.6879839
vt 0.5258783 0.6684531
vt 0.530761 0.6723592
vt 0.5258783 0.6723592
vt 0.5756818 0.6684531
vt 0.543456 0.6879839
vt 0.5756818 0.6879839
vt 0.5229487 0.7172801
vt 0.5336906 0.715327
vt 0.5297844 0.7143505
vt 0.5278314 0.7104443
vt 0.543456 0.7172801
vt 0.5375968 0.7143505
vt 0.5385733 0.7104443
vt 0.543456 0.6879839
vt 0.5278314 0.6957962
vt 0.5288079 0.7065381
vt 0.5229487 0.6879839
vt 0.5288079 0.6987258
vt 0.5288079 0.6918901
vt 0.5327141 0.7006789
vt 0.5327141 0.6899369
vt 0.5327141 0.7045851
vt 0.5366203 0.6918901
vt 0.5366203 0.6987258
vt 0.5366203 0.7065381
vt 0.5385733 0.6957962
vt 0.543456 0.6879839
vt 0.5473621 0.7104443
vt 0.5473621 0.6948196
vt 0.5502918 0.6918901
vt 0.543456 0.7172801
vt 0.5502918 0.7133739
vt 0.5756818 0.6879839
vt 0.568846 0.6918901
vt 0.5717757 0.6938431
vt 0.5756818 0.7172801
vt 0.568846 0.7133739
vt 0.5717757 0.7104443
vn -0.5294758 0.6000471 -0.5996656
vn -0.5294758 0.6000471 -0.5996656
vn -0.5294758 0.6000471 -0.5996656
vn -0.5294071 0.6000774 -0.5996959
vn -0.5295103 0.8430964 -0.09384694
vn -0.5293897 0.8431515 -0.09403318
vn -0.5293802 0.8431364 -0.09422223
vn -0.5294322 0.8431239 -0.09404074
vn -0.5293769 0.6000431 0.599757
vn -0.5293921 0.5999649 0.5998219
vn -0.5294071 0.5999821 0.5997913
vn -0.5293921 0.5999649 0.5998219
vn 0.003910294 -0.7099568 0.7042344
vn 0.003910294 -0.7099568 0.7042344
vn 0.003910294 -0.7099568 0.7042344
vn 0.003910294 -0.7099568 0.7042344
vn 0.003909169 0.004004514 0.9999844
vn 0.003909169 0.004004514 0.9999844
vn 0.003909169 0.004004514 0.9999844
vn 0.003909169 0.004004514 0.9999844
vn -0.529399 0.003910171 0.848364
vn -0.529399 0.003910171 0.848364
vn -0.529399 0.003910171 0.848364
vn -0.529399 0.003910171 0.848364
vn 0.999992 0.004005308 0
vn 0.999992 0.004005308 0
vn 0.999992 0.004005308 0
vn 0.999992 0.004005308 0
vn 0.999992 0.004005308 0
vn 0.999992 0.004005308 0
vn -0.999992 0.004005308 0
vn -0.999992 0.004005308 0
vn -0.999992 0.004005308 0
vn -0.999992 0.004005308 0
vn -0.999992 0.004005308 0
vn -0.999992 0.004005308 0
vn -0.5294758 -0.6000471 -0.5996656
vn -0.5294758 -0.6000471 -0.5996656
vn -0.5294071 -0.6000774 -0.5996959
vn -0.5294758 -0.6000471 -0.5996656
vn -0.5294226 -0.8431087 -0.0942298
vn -0.5293897 -0.8431515 -0.09403318
vn -0.5294322 -0.8431239 -0.09404074
vn -0.5293802 -0.8431364 -0.09422223
vn -0.5293769 -0.6000431 0.599757
vn -0.5293921 -0.5999649 0.5998219
vn -0.5293921 -0.5999649 0.5998219
vn -0.5294071 -0.5999821 0.5997913
vn 0.003910294 0.7099568 0.7042344
vn 0.003910294 0.7099568 0.7042344
vn 0.003910294 0.7099568 0.7042344
vn 0.003910294 0.7099568 0.7042344
vn 0.003910065 0.004005433 -0.9999844
vn 0.003910065 0.004005433 -0.9999844
vn 0.003910065 0.004005433 -0.9999844
vn 0.003910065 0.004005433 -0.9999844
vn -0.5293775 0.003910013 -0.8483773
vn -0.5293775 0.003910013 -0.8483773
vn -0.5293775 0.003910013 -0.8483773
vn -0.5293775 0.003910013 -0.8483773
vn -0.9999924 0.003909945 0
vn -0.9999924 0.003909945 0
vn -0.9999924 0.003909945 0
vn -0.9999924 0.003909945 0
vn -0.9999924 0.003909945 0
vn -0.9999924 0.003909945 0
vn -0.9999924 0.003909945 0
vn -0.9999924 0.003909945 0
vn -0.7568967 -0.3804273 -0.5313966
vn -0.7569208 -0.3803796 -0.5313966
vn -0.7569156 -0.3803831 -0.5314015
vn -0.7568967 -0.3804273 -0.5313966
vn -0.3176428 -0.9215766 -0.2231582
vn -0.3176428 -0.9215766 -0.2231582
vn -0.3176428 -0.9215766 -0.2231582
vn -0.3176428 -0.9215766 -0.2231582
vn 0.3176428 -0.9215766 0.2231582
vn 0.3176642 -0.9215696 0.2231565
vn 0.3176643 -0.9215696 0.2231565
vn 0.3176428 -0.9215766 0.2231582
vn 0.7569309 -0.3803728 0.531387
vn 0.7568967 -0.3804273 0.5313966
vn 0.7568764 -0.3804411 0.5314158
vn 0.7569309 -0.3803728 0.531387
vn -0.3176074 0.9215908 -0.2231501
vn -0.3176074 0.9215908 -0.2231501
vn -0.3176181 0.9215873 -0.2231492
vn -0.3176181 0.9215873 -0.2231492
vn -0.7569396 0.3803354 -0.5314015
vn -0.7568967 0.3804273 -0.5313966
vn -0.7568967 0.3804273 -0.5313966
vn -0.7569345 0.3803388 -0.5314063
vn 0.3176503 0.9215769 0.2231467
vn 0.3176181 0.9215873 0.2231492
vn 0.3176074 0.9215908 0.2231501
vn 0.3176503 0.9215769 0.2231467
vn 0.7568764 0.3804411 0.5314158
vn 0.7569447 0.380332 0.5313967
vn 0.7569447 0.380332 0.5313967
vn 0.7568967 0.3804273 0.5313966
vn -0.3176181 -0.9215873 -0.2231492
vn -0.3176181 -0.9215873 -0.2231492
vn -0.3176074 -0.9215908 -0.2231501
vn -0.3176074 -0.9215908 -0.2231501
vn -0.7568967 -0.3804273 -0.5313966
vn -0.7569345 -0.3803388 -0.5314063
vn -0.7569395 -0.3803355 -0.5314015
vn -0.7568967 -0.3804273 -0.5313966
vn 0.3176074 -0.9215908 0.2231501
vn 0.3176503 -0.9215769 0.2231467
vn 0.3176503 -0.9215769 0.2231467
vn 0.3176181 -0.9215873 0.2231492
vn 0.7569447 -0.380332 0.5313967
vn 0.7568967 -0.3804273 0.5313966
vn 0.7568764 -0.3804411 0.5314158
vn 0.7569447 -0.380332 0.5313967
vn -0.3176428 0.9215766 -0.2231582
vn -0.3176428 0.9215766 -0.2231582
vn -0.3176428 0.9215766 -0.2231582
vn -0.3176428 0.9215766 -0.2231582
vn 0.3176642 0.9215696 0.2231565
vn 0.3176428 0.9215766 0.2231582
vn 0.3176428 0.9215766 0.2231582
vn 0.3176643 0.9215696 0.2231565
vn -0.7569156 0.3803831 -0.5314015
vn -0.7568967 0.3804273 -0.5313966
vn -0.7568967 0.3804273 -0.5313966
vn -0.7569208 0.3803796 -0.5313966
vn 0.7568764 0.3804411 0.5314158
vn 0.7569309 0.3803728 0.531387
vn 0.7569309 0.3803728 0.531387
vn 0.7568967 0.3804273 0.5313966
vn -0.6469595 0.003909841 0.7625144
vn -0.6469734 -0.003909781 0.7625027
vn -0.6469734 0.003909781 0.7625027
vn -0.6469595 0.003909841 0.7625144
vn -0.6469595 0.003909841 0.7625144
vn -0.6469592 0.004005202 0.7625141
vn -0.6469731 -0.00400514 0.7625024
vn -0.6469592 0.004005201 0.7625141
vn -0.6469731 0.00400514 0.7625024
vn -0.6469734 0.003909781 0.7625027
vn -0.6469734 0.003909781 0.7625027
vn -0.6469592 -0.004005201 0.7625141
vn -0.6469592 -0.004005201 0.7625141
vn -0.6469595 -0.003909841 0.7625144
vn -0.6469595 0.003909841 0.7625144
vn -0.6469595 -0.003909841 0.7625144
vn 0.003909945 0.9999924 0
vn 0.003909945 0.9999924 0
vn 0.003909945 0.9999924 0
vn 0.003909945 0.9999924 0
vn 0.003909945 0.9999924 0
vn 0.003909945 0.9999924 0
vn 0.003909945 -0.9999924 0
vn 0.003909945 -0.9999924 0
vn 0.003909945 -0.9999924 0
vn 0.003909945 -0.9999924 0
vn 0.003909945 -0.9999924 0
vn 0.003909945 -0.9999924 0
vn -0.6472445 0.004005935 0.7622721
vn -0.6469592 -0.004005202 0.7625141
vn -0.6469592 0.004005201 0.7625141
vn -0.6469595 0.003909841 0.7625144
vn -0.6469454 0.004005263 0.7625259
vn -0.6469731 0.00400514 0.7625024
vn -0.6469455 0.003909901 0.7625262
vn -0.6469454 0.004005263 0.7625258
vn -0.6469595 0.003909841 0.7625144
vn -0.6469595 0.003909841 0.7625144
vn -0.6472445 0.004005934 0.7622721
vn -0.6469595 0.003909841 0.7625144
vn -0.6469592 -0.004005201 0.7625141
vn -0.6469595 0.003909841 0.7625144
vn -0.6469592 0.004005202 0.7625141
vn -0.6469595 0.003909841 0.7625144
vn -0.6469731 -0.00400514 0.7625024
vn -0.6469734 0.003909781 0.7625027
vn -0.6469734 0.003909781 0.7625027
vn -0.6469455 0.003909901 0.7625262
vn -0.999992 0.004005308 0
vn -0.9999924 0.003909945 0
vn -0.9999924 0.003909945 0
vn -0.999992 0.004005308 0
vn -0.999992 0.004005308 0
vn -0.999992 0.004005308 0
vn -0.999992 0.004005308 0
vn -0.999992 0.004005308 0
vn -0.9999924 0.003909945 0
vn -0.999992 0.004005309 0
vn -0.999992 0.004005308 0
vn -0.9999924 0.003909945 0
g sb_city_01_prop_23 (1)_0
f 3/3/3 2/2/2 1/1/1
f 4/4/4 1/1/1 2/2/2
f 7/7/7 6/6/6 5/5/5
f 8/8/8 5/5/5 6/6/6
f 11/11/11 10/10/10 9/9/9
f 12/12/12 9/9/9 10/10/10
f 15/15/15 14/14/14 13/13/13
f 16/16/16 13/13/13 14/14/14
f 19/19/19 18/18/18 17/17/17
f 20/20/20 17/17/17 18/18/18
f 23/23/23 22/22/22 21/21/21
f 24/24/24 21/21/21 22/22/22
f 27/27/27 26/26/26 25/25/25
f 26/26/26 28/28/28 25/25/25
f 29/29/29 28/28/28 26/26/26
f 30/30/30 28/28/28 29/29/29
f 33/33/33 32/32/32 31/31/31
f 32/32/32 34/34/34 31/31/31
f 34/34/34 35/35/35 31/31/31
f 36/36/36 35/35/35 34/34/34
f 39/39/39 38/38/38 37/37/37
f 40/40/40 37/37/37 38/38/38
f 43/43/43 42/42/42 41/41/41
f 44/44/44 41/41/41 42/42/42
f 47/47/47 46/46/46 45/45/45
f 48/48/48 45/45/45 46/46/46
f 51/51/51 50/50/50 49/49/49
f 52/52/52 49/49/49 50/50/50
f 55/55/55 54/54/54 53/53/53
f 56/56/56 53/53/53 54/54/54
f 59/59/59 58/58/58 57/57/57
f 60/60/60 57/57/57 58/58/58
f 63/63/63 62/62/62 61/61/61
f 62/62/62 64/64/64 61/61/61
f 64/64/64 65/65/65 61/61/61
f 66/66/66 65/65/65 64/64/64
f 67/67/67 66/66/66 64/64/64
f 68/68/68 65/65/65 66/66/66
f 71/71/71 70/70/70 69/69/69
f 72/72/72 69/69/69 70/70/70
f 75/75/75 74/74/74 73/73/73
f 76/76/76 73/73/73 74/74/74
f 79/79/79 78/78/78 77/77/77
f 80/80/80 77/77/77 78/78/78
f 83/83/83 82/82/82 81/81/81
f 84/84/84 81/81/81 82/82/82
f 87/87/87 86/86/86 85/85/85
f 88/88/88 85/85/85 86/86/86
f 91/91/91 90/90/90 89/89/89
f 92/92/92 89/89/89 90/90/90
f 95/95/95 94/94/94 93/93/93
f 96/96/96 93/93/93 94/94/94
f 99/99/99 98/98/98 97/97/97
f 100/100/100 97/97/97 98/98/98
f 103/103/103 102/102/102 101/101/101
f 104/104/104 101/101/101 102/102/102
f 107/107/107 106/106/106 105/105/105
f 108/108/108 105/105/105 106/106/106
f 111/111/111 110/110/110 109/109/109
f 112/112/112 109/109/109 110/110/110
f 115/115/115 114/114/114 113/113/113
f 116/116/116 113/113/113 114/114/114
f 119/119/119 118/118/118 117/117/117
f 120/120/120 117/117/117 118/118/118
f 123/123/123 122/122/122 121/121/121
f 124/124/124 121/121/121 122/122/122
f 127/127/127 126/126/126 125/125/125
f 128/128/128 125/125/125 126/126/126
f 131/131/131 130/130/130 129/129/129
f 132/132/132 129/129/129 130/130/130
f 135/135/135 134/134/134 133/133/133
f 134/134/134 136/136/136 133/133/133
f 136/136/136 137/137/137 133/133/133
f 138/138/138 136/136/136 134/134/134
f 139/139/139 138/138/138 134/134/134
f 140/140/140 136/136/136 138/138/138
f 143/143/143 142/142/142 141/141/141
f 142/142/142 144/144/144 141/141/141
f 144/144/144 145/145/145 141/141/141
f 146/146/146 144/144/144 142/142/142
f 147/147/147 146/146/146 142/142/142
f 148/148/148 144/144/144 146/146/146
f 151/151/151 150/150/150 149/149/149
f 150/150/150 152/152/152 149/149/149
f 152/152/152 153/153/153 149/149/149
f 154/154/154 153/153/153 152/152/152
f 157/157/157 156/156/156 155/155/155
f 156/156/156 158/158/158 155/155/155
f 159/159/159 158/158/158 156/156/156
f 160/160/160 158/158/158 159/159/159
f 163/163/163 162/162/162 161/161/161
f 164/164/164 163/163/163 161/161/161
f 162/162/162 165/165/165 161/161/161
f 162/162/162 166/166/166 165/165/165
f 165/165/165 166/166/166 167/167/167
f 165/165/165 167/167/167 168/168/168
f 164/164/164 161/161/161 169/169/169
f 164/164/164 169/169/169 170/170/170
f 171/171/171 169/169/169 161/161/161
f 172/172/172 170/170/170 169/169/169
f 173/173/173 169/169/169 171/171/171
f 172/172/172 174/174/174 170/170/170
f 175/175/175 173/173/173 171/171/171
f 168/168/168 175/175/175 171/171/171
f 176/176/176 170/170/170 174/174/174
f 177/177/177 175/175/175 168/168/168
f 174/174/174 178/178/178 176/176/176
f 179/179/179 176/176/176 178/178/178
f 177/177/177 168/168/168 180/180/180
f 178/178/178 180/180/180 179/179/179
f 180/180/180 168/168/168 167/167/167
f 167/167/167 179/179/179 180/180/180
f 183/183/183 182/182/182 181/181/181
f 184/184/184 183/183/183 181/181/181
f 185/185/185 181/181/181 182/182/182
f 182/182/182 186/186/186 185/185/185
f 181/181/181 187/187/187 184/184/184
f 188/188/188 184/184/184 187/187/187
f 188/188/188 187/187/187 189/189/189
f 185/185/185 186/186/186 190/190/190
f 187/187/187 190/190/190 189/189/189
f 191/191/191 190/190/190 186/186/186
f 192/192/192 189/189/189 190/190/190
f 190/190/190 191/191/191 192/192/192
