g sb_city_01_prop_16
v 0.114886 0.9095752 -0.54267
v 0.1148857 -0.9095752 -0.54267
v 0.1148856 -0.9095752 0.5685733
v 0.1148859 0.9095752 0.5685733
v 0.06426375 0.8328 -0.4658948
v 0.06426359 0.8328 0.4917981
v 0.06426332 -0.8328 0.4917981
v 0.06426348 -0.8328 -0.4658948
v 0.114886 0.9095752 -0.54267
v 0.03452751 0.9095752 -0.54267
v 0.03452721 -0.9095752 -0.54267
v 0.1148857 -0.9095752 -0.54267
v 0.1148857 -0.9095752 -0.54267
v 0.03452721 -0.9095752 -0.54267
v 0.03452698 -0.9095752 0.5685733
v 0.1148856 -0.9095752 0.5685733
v 0.1148856 -0.9095752 0.5685733
v 0.03452698 -0.9095752 0.5685733
v 0.03452728 0.9095752 0.5685733
v 0.1148859 0.9095752 0.5685733
v 0.1148859 0.9095752 0.5685733
v 0.03452728 0.9095752 0.5685733
v 0.03452751 0.9095752 -0.54267
v 0.114886 0.9095752 -0.54267
v 0.0345275 0.8577691 -0.4908637
v 0.06426375 0.8328 -0.4658948
v 0.06426348 -0.8328 -0.4658948
v 0.03452722 -0.857769 -0.4908637
v 0.03452722 -0.857769 -0.4908637
v 0.06426348 -0.8328 -0.4658948
v 0.06426332 -0.8328 0.4917981
v 0.03452699 -0.857769 0.5167671
v 0.03452699 -0.857769 0.5167671
v 0.06426332 -0.8328 0.4917981
v 0.06426359 0.8328 0.4917981
v 0.03452727 0.8577691 0.5167671
v 0.03452727 0.8577691 0.5167671
v 0.06426359 0.8328 0.4917981
v 0.06426375 0.8328 -0.4658948
v 0.0345275 0.8577691 -0.4908637
v -0.1148859 1.871728E-08 -0.5685733
v -0.1148858 0.6328223 -0.5685733
v -0.1148858 0.6328152 -0.516767
v -0.1148859 1.871728E-08 -0.516767
v -0.114886 -0.6328152 -0.516767
v -0.114886 -0.6328221 -0.5685733
v -0.1148859 1.871728E-08 -0.516767
v -0.1148858 0.6328152 -0.516767
v -0.08644337 0.6328152 -0.516767
v -0.08644348 1.408343E-08 -0.516767
v -0.08644359 -0.6328152 -0.516767
v -0.114886 -0.6328152 -0.516767
v -0.1148858 0.6328223 -0.5685733
v -0.08644337 0.6328223 -0.5685733
v -0.08644337 0.6328152 -0.516767
v -0.1148858 0.6328152 -0.516767
v -0.0864437 0.5428857 -0.5577044
v -0.08644369 0.5702887 -0.5577044
v -0.08644369 0.5702887 -0.5276376
v -0.0864437 0.5428857 -0.5276376
v 0.05323137 0.5428857 -0.5577044
v 0.05323137 0.5428857 -0.5276373
v 0.05323137 0.5702887 -0.5276373
v 0.05323137 0.5702887 -0.5577044
v -0.0864437 0.5428857 -0.5577044
v 0.05323137 0.5428857 -0.5577044
v 0.05323137 0.5702887 -0.5577044
v -0.08644369 0.5702887 -0.5577044
v -0.08644369 0.5702887 -0.5577044
v 0.05323137 0.5702887 -0.5577044
v 0.05323137 0.5702887 -0.5276373
v -0.08644369 0.5702887 -0.5276376
v -0.08644369 0.5702887 -0.5276376
v 0.05323137 0.5702887 -0.5276373
v 0.05323137 0.5428857 -0.5276373
v -0.0864437 0.5428857 -0.5276376
v -0.0864437 0.5428857 -0.5276376
v 0.05323137 0.5428857 -0.5276373
v 0.05323137 0.5428857 -0.5577044
v -0.0864437 0.5428857 -0.5577044
v -0.08644337 0.6328223 -0.5685733
v -0.08644348 1.408343E-08 -0.516767
v -0.08644337 0.6328152 -0.516767
v -0.08644348 1.408343E-08 -0.5685733
v -0.08644359 -0.6328221 -0.5685733
v -0.08644359 -0.6328152 -0.516767
v -0.1148858 0.6328223 -0.5685733
v -0.08644348 1.408343E-08 -0.5685733
v -0.08644337 0.6328223 -0.5685733
v -0.1148859 1.871728E-08 -0.5685733
v -0.114886 -0.6328221 -0.5685733
v -0.08644359 -0.6328221 -0.5685733
v -0.114886 -0.6328221 -0.5685733
v -0.114886 -0.6328152 -0.516767
v -0.08644359 -0.6328152 -0.516767
v -0.08644359 -0.6328221 -0.5685733
v -0.08644387 -0.5428857 -0.5577044
v -0.08644387 -0.5428857 -0.5276376
v -0.08644388 -0.5702888 -0.5276376
v -0.08644388 -0.5702888 -0.5577044
v 0.05323119 -0.5428857 -0.5577044
v 0.05323119 -0.5702887 -0.5577044
v 0.05323119 -0.5702887 -0.5276373
v 0.05323119 -0.5428857 -0.5276373
v -0.08644387 -0.5428857 -0.5577044
v -0.08644388 -0.5702888 -0.5577044
v 0.05323119 -0.5702887 -0.5577044
v 0.05323119 -0.5428857 -0.5577044
v -0.08644388 -0.5702888 -0.5577044
v -0.08644388 -0.5702888 -0.5276376
v 0.05323119 -0.5702887 -0.5276373
v 0.05323119 -0.5702887 -0.5577044
v -0.08644388 -0.5702888 -0.5276376
v -0.08644387 -0.5428857 -0.5276376
v 0.05323119 -0.5428857 -0.5276373
v 0.05323119 -0.5702887 -0.5276373
v -0.08644387 -0.5428857 -0.5276376
v -0.08644387 -0.5428857 -0.5577044
v 0.05323119 -0.5428857 -0.5577044
v 0.05323119 -0.5428857 -0.5276373
v 0.03452751 0.9095752 -0.54267
v 0.0345275 0.8577691 -0.4908637
v 0.03452722 -0.857769 -0.4908637
v 0.03452721 -0.9095752 -0.54267
v 0.03452728 0.9095752 0.5685733
v 0.03452699 -0.857769 0.5167671
v 0.03452727 0.8577691 0.5167671
v 0.03452698 -0.9095752 0.5685733
vt 0.4607318 0.8041053
vt 0.460175 0.8041053
vt 0.460175 0.8044454
vt 0.4607318 0.8044454
vt 0.5998186 0.8994132
vt 0.6258539 0.8994132
vt 0.6258539 0.8540374
vt 0.5998186 0.8540374
vt 0.5954488 0.9015755
vt 0.5976451 0.9015868
vt 0.5976451 0.8518636
vt 0.5954489 0.8518749
vt 0.5976521 0.8496668
vt 0.5976451 0.8518636
vt 0.6280274 0.8518636
vt 0.6280205 0.8496668
vt 0.6302238 0.8518749
vt 0.6280274 0.8518636
vt 0.6280274 0.9015868
vt 0.6302238 0.9015755
vt 0.6280164 0.9037834
vt 0.6280274 0.9015868
vt 0.5976451 0.9015868
vt 0.5976563 0.9037834
vt 0.5990174 0.9002144
vt 0.5998186 0.8994132
vt 0.5998186 0.8540374
vt 0.5990174 0.8532361
vt 0.5990174 0.8532361
vt 0.5998186 0.8540374
vt 0.6258539 0.8540374
vt 0.6266551 0.8532361
vt 0.6266551 0.8532361
vt 0.6258539 0.8540374
vt 0.6258539 0.8994132
vt 0.6266551 0.9002144
vt 0.6266551 0.9002144
vt 0.6258539 0.8994132
vt 0.5998186 0.8994132
vt 0.5990174 0.9002144
vt 0.5215027 0.9100074
vt 0.5013346 0.9100074
vt 0.5013347 0.9116583
vt 0.5215027 0.9116583
vt 0.5416707 0.9116583
vt 0.5416709 0.9100074
vt 0.5215027 0.9116583
vt 0.5013347 0.9116583
vt 0.5013347 0.9125649
vt 0.5215027 0.9125649
vt 0.5416707 0.9125649
vt 0.5416707 0.9116583
vt 0.5013346 0.9100074
vt 0.5004282 0.9100074
vt 0.5004282 0.9116583
vt 0.5013347 0.9116583
vt 0.5019794 0.8966046
vt 0.5019794 0.897478
vt 0.5029376 0.897478
vt 0.5029376 0.8966046
vt 0.5083473 0.8966046
vt 0.507389 0.8966046
vt 0.507389 0.897478
vt 0.5083473 0.897478
vt 0.5029376 0.8993096
vt 0.507389 0.8993097
vt 0.507389 0.8984362
vt 0.5029376 0.8984362
vt 0.5029376 0.8984362
vt 0.507389 0.8984362
vt 0.507389 0.897478
vt 0.5029376 0.897478
vt 0.5029376 0.897478
vt 0.507389 0.897478
vt 0.507389 0.8966046
vt 0.5029376 0.8966046
vt 0.5029376 0.8966046
vt 0.507389 0.8966046
vt 0.507389 0.8956465
vt 0.5029376 0.8956465
vt 0.5013345 0.9091008
vt 0.5215027 0.9074497
vt 0.5013347 0.9074497
vt 0.5215027 0.9091008
vt 0.5416709 0.9091008
vt 0.5416707 0.9074497
vt 0.5013346 0.9100074
vt 0.5215027 0.9091008
vt 0.5013345 0.9091008
vt 0.5215027 0.9100074
vt 0.5416709 0.9100074
vt 0.5416709 0.9091008
vt 0.5416709 0.9100074
vt 0.5416707 0.9116583
vt 0.5425773 0.9116583
vt 0.5425773 0.9100074
vt 0.4596637 0.8050337
vt 0.4596637 0.8050429
vt 0.4596721 0.8050429
vt 0.4596721 0.8050337
vt 0.4596721 0.8050203
vt 0.4596637 0.8050203
vt 0.4596637 0.8050295
vt 0.4596721 0.8050295
vt 0.4607334 0.8040405
vt 0.4607417 0.8040405
vt 0.4607417 0.8039977
vt 0.4607334 0.8039977
vt 0.4601481 0.8046368
vt 0.4601481 0.804646
vt 0.4601908 0.804646
vt 0.4601908 0.8046368
vt 0.4602783 0.8048402
vt 0.4602783 0.8048318
vt 0.4602355 0.8048318
vt 0.4602355 0.8048402
vt 0.4602043 0.8045048
vt 0.4602043 0.8044956
vt 0.4601615 0.8044956
vt 0.4601615 0.8045048
vt 0.5976451 0.9015868
vt 0.5990174 0.9002144
vt 0.5990174 0.8532361
vt 0.5976451 0.8518636
vt 0.6280274 0.9015868
vt 0.6266551 0.8532361
vt 0.6266551 0.9002144
vt 0.6280274 0.8518636
vn 1 -1.677573E-07 1.373128E-07
vn 1 -1.677573E-07 1.373128E-07
vn 1 -1.677573E-07 1.373128E-07
vn 1 -1.677573E-07 1.373128E-07
vn -1 1.603199E-07 -1.593286E-07
vn -1 1.603199E-07 -1.593286E-07
vn -1 1.603199E-07 -1.593286E-07
vn -1 1.603199E-07 -1.593286E-07
vn 0 0 -1
vn 0 0 -1
vn 0 0 -1
vn 0 0 -1
vn 0 -1 0
vn 0 -1 0
vn 0 -1 0
vn 0 -1 0
vn 0 0 1
vn 0 0 1
vn 0 0 1
vn 0 0 1
vn 0 1 0
vn 0 1 0
vn 0 1 0
vn 0 1 0
vn -0.6430475 1.042397E-07 0.7658263
vn -0.6430475 1.042397E-07 0.7658263
vn -0.6430475 1.042397E-07 0.7658262
vn -0.6430475 1.042397E-07 0.7658262
vn -0.6430493 0.7658249 -1.249708E-07
vn -0.6430492 0.7658249 -1.249708E-07
vn -0.6430492 0.7658249 -1.249708E-07
vn -0.6430493 0.7658249 -1.249708E-07
vn -0.6430489 1.044209E-07 -0.7658252
vn -0.6430488 1.044209E-07 -0.7658252
vn -0.6430488 1.044209E-07 -0.7658253
vn -0.6430488 1.044209E-07 -0.7658252
vn -0.6430517 -0.7658228 -1.246581E-07
vn -0.6430517 -0.7658228 -1.246581E-07
vn -0.6430516 -0.7658228 -1.246581E-07
vn -0.6430517 -0.7658228 -1.246581E-07
vn -1 1.657729E-07 0
vn -1 1.657729E-07 0
vn -1 1.657729E-07 0
vn -1 1.657729E-07 0
vn -1 1.657729E-07 0
vn -1 1.657729E-07 0
vn 0 0 1
vn 0 0 1
vn 0 0 1
vn 0 0 1
vn 0 0 1
vn 0 0 1
vn 0 1 0.0001354862
vn 0 1 0.0001354862
vn 0 1 0.0001354862
vn 0 1 0.0001354862
vn -1 3.480188E-07 0
vn -1 3.480188E-07 0
vn -1 3.480188E-07 0
vn -1 3.480188E-07 0
vn 1 0 0
vn 1 0 0
vn 1 0 0
vn 1 0 0
vn 0 0 -1
vn 0 0 -1
vn 0 0 -1
vn 0 0 -1
vn 0 1 0
vn 0 1 0
vn 0 1 0
vn 0 1 0
vn -2.184898E-06 0 1
vn -2.184898E-06 0 1
vn -2.184898E-06 0 1
vn -2.184898E-06 0 1
vn 0 -1 0
vn 0 -1 0
vn 0 -1 0
vn 0 -1 0
vn 1 -1.657729E-07 0
vn 1 -1.657729E-07 0
vn 1 -1.657729E-07 0
vn 1 -1.657729E-07 0
vn 1 -1.657729E-07 0
vn 1 -1.657729E-07 0
vn 0 0 -1
vn 0 0 -1
vn 0 0 -1
vn 0 0 -1
vn 0 0 -1
vn 0 0 -1
vn 0 -1 0.0001325409
vn 0 -1 0.0001325409
vn 0 -1 0.0001325409
vn 0 -1 0.0001325409
vn -1 3.480168E-07 0
vn -1 3.480168E-07 0
vn -1 3.480168E-07 0
vn -1 3.480168E-07 0
vn 1 0 0
vn 1 0 0
vn 1 0 0
vn 1 0 0
vn 0 0 -1
vn 0 0 -1
vn 0 0 -1
vn 0 0 -1
vn 1.092449E-06 -1 0
vn 1.092449E-06 -1 0
vn 1.092449E-06 -1 0
vn 1.092449E-06 -1 0
vn -2.184898E-06 0 1
vn -2.184898E-06 0 1
vn -2.184898E-06 0 1
vn -2.184898E-06 0 1
vn 0 1 0
vn 0 1 0
vn 0 1 0
vn 0 1 0
vn -1 1.632316E-07 0
vn -1 1.632316E-07 0
vn -1 1.632316E-07 0
vn -1 1.632316E-07 0
vn -1 1.632316E-07 0
vn -1 1.380641E-07 -2.16041E-07
vn -1 1.632316E-07 0
vn -1 1.380641E-07 -2.16041E-07
g sb_city_01_prop_16_0
f 3/3/3 2/2/2 1/1/1
f 4/4/4 3/3/3 1/1/1
f 7/7/7 6/6/6 5/5/5
f 8/8/8 7/7/7 5/5/5
f 11/11/11 10/10/10 9/9/9
f 12/12/12 11/11/11 9/9/9
f 15/15/15 14/14/14 13/13/13
f 16/16/16 15/15/15 13/13/13
f 19/19/19 18/18/18 17/17/17
f 20/20/20 19/19/19 17/17/17
f 23/23/23 22/22/22 21/21/21
f 24/24/24 23/23/23 21/21/21
f 27/27/27 26/26/26 25/25/25
f 28/28/28 27/27/27 25/25/25
f 31/31/31 30/30/30 29/29/29
f 32/32/32 31/31/31 29/29/29
f 35/35/35 34/34/34 33/33/33
f 36/36/36 35/35/35 33/33/33
f 39/39/39 38/38/38 37/37/37
f 40/40/40 39/39/39 37/37/37
f 43/43/43 42/42/42 41/41/41
f 44/44/44 43/43/43 41/41/41
f 44/44/44 41/41/41 45/45/45
f 41/41/41 46/46/46 45/45/45
f 49/49/49 48/48/48 47/47/47
f 50/50/50 49/49/49 47/47/47
f 50/50/50 47/47/47 51/51/51
f 47/47/47 52/52/52 51/51/51
f 55/55/55 54/54/54 53/53/53
f 56/56/56 55/55/55 53/53/53
f 59/59/59 58/58/58 57/57/57
f 60/60/60 59/59/59 57/57/57
f 63/63/63 62/62/62 61/61/61
f 64/64/64 63/63/63 61/61/61
f 67/67/67 66/66/66 65/65/65
f 68/68/68 67/67/67 65/65/65
f 71/71/71 70/70/70 69/69/69
f 72/72/72 71/71/71 69/69/69
f 75/75/75 74/74/74 73/73/73
f 76/76/76 75/75/75 73/73/73
f 79/79/79 78/78/78 77/77/77
f 80/80/80 79/79/79 77/77/77
f 83/83/83 82/82/82 81/81/81
f 82/82/82 84/84/84 81/81/81
f 85/85/85 84/84/84 82/82/82
f 86/86/86 85/85/85 82/82/82
f 89/89/89 88/88/88 87/87/87
f 88/88/88 90/90/90 87/87/87
f 91/91/91 90/90/90 88/88/88
f 92/92/92 91/91/91 88/88/88
f 95/95/95 94/94/94 93/93/93
f 96/96/96 95/95/95 93/93/93
f 99/99/99 98/98/98 97/97/97
f 100/100/100 99/99/99 97/97/97
f 103/103/103 102/102/102 101/101/101
f 104/104/104 103/103/103 101/101/101
f 107/107/107 106/106/106 105/105/105
f 108/108/108 107/107/107 105/105/105
f 111/111/111 110/110/110 109/109/109
f 112/112/112 111/111/111 109/109/109
f 115/115/115 114/114/114 113/113/113
f 116/116/116 115/115/115 113/113/113
f 119/119/119 118/118/118 117/117/117
f 120/120/120 119/119/119 117/117/117
f 123/123/123 122/122/122 121/121/121
f 124/124/124 123/123/123 121/121/121
f 121/121/121 122/122/122 125/125/125
f 126/126/126 123/123/123 124/124/124
f 122/122/122 127/127/127 125/125/125
f 128/128/128 126/126/126 124/124/124
f 125/125/125 127/127/127 128/128/128
f 127/127/127 126/126/126 128/128/128
